SplineFontDB: 3.0
FontName: LoyalSansSemiboldv1.2
FullName: Loyal Sans Semibold
FamilyName: Loyal Sans
Weight: Semibold
Copyright: Copyright (c) 2024, Emmet Blanchette
Version: 001.200
ItalicAngle: 0
UnderlinePosition: -100
UnderlineWidth: 50
Ascent: 800
Descent: 200
InvalidEm: 0
sfntRevision: 0x00010000
LayerCount: 2
Layer: 0 0 "Back" 1
Layer: 1 0 "Fore" 0
XUID: [1021 827 1087830365 2967395]
StyleMap: 0x0020
FSType: 0
OS2Version: 4
OS2_WeightWidthSlopeOnly: 0
OS2_UseTypoMetrics: 1
CreationTime: 1702354516
ModificationTime: 1714173967
PfmFamily: 17
TTFWeight: 600
TTFWidth: 5
LineGap: 90
VLineGap: 0
Panose: 2 0 7 3 0 0 0 0 0 0
OS2TypoAscent: 800
OS2TypoAOffset: 0
OS2TypoDescent: -200
OS2TypoDOffset: 0
OS2TypoLinegap: 90
OS2WinAscent: 636
OS2WinAOffset: 0
OS2WinDescent: 200
OS2WinDOffset: 0
HheadAscent: 636
HheadAOffset: 0
HheadDescent: -200
HheadDOffset: 0
OS2SubXSize: 650
OS2SubYSize: 700
OS2SubXOff: 0
OS2SubYOff: 140
OS2SupXSize: 650
OS2SupYSize: 700
OS2SupXOff: 0
OS2SupYOff: 480
OS2StrikeYSize: 49
OS2StrikeYPos: 258
OS2CapHeight: 619
OS2XHeight: 421
OS2Vendor: 'PfEd'
OS2CodePages: 00000001.00000000
OS2UnicodeRanges: 80000001.40000000.00000000.00000000
Lookup: 4 0 1 "<1,2> Common Ligatures in Latin lookup 0" { "<1,2> Common Ligatures in Latin lookup 0 subtable"  } [<1,2> ('latn' <'dflt' > ) 'liga' ('latn' <'dflt' > ) ]
Lookup: 258 0 0 "'kern' Horizontal Kerning in Latin lookup 0" { "'kern' Horizontal Kerning in Latin lookup 0 subtable"  } ['kern' ('latn' <'dflt' > ) ]
MarkAttachClasses: 1
DEI: 91125
MacFeat: 0 0 0
MacName: 0 0 24 "All Typographic Features"
MacName: 0 1 24 "Fonctions typographiques"
MacName: 0 2 33 "Alle typografischen M\232glichkeiten"
MacName: 0 3 21 "Funzioni Tipografiche"
MacName: 0 4 28 "Alle typografische kenmerken"
MacSetting: 0
MacName: 0 0 17 "All Type Features"
MacName: 0 1 31 "Toutes fonctions typographiques"
MacName: 0 2 23 "Alle Auszeichnungsarten"
MacName: 0 3 17 "Tutte le Funzioni"
MacName: 0 4 18 "Alle typekenmerken"
MacFeat: 1 0 0

StartChar: .notdef
Encoding: 65536 -1 0
Width: 500
Flags: MW
HStem: 0 50<100 400 100 450> 483 50<100 400 100 100>
VStem: 50 50<50 50 50 483> 400 50<50 483 483 483>
LayerCount: 2
Fore
SplineSet
50 0 m 1
 50 533 l 1
 450 533 l 1
 450 0 l 1
 50 0 l 1
100 50 m 1
 400 50 l 1
 400 483 l 1
 100 483 l 1
 100 50 l 1
EndSplineSet
EndChar

StartChar: exclam
Encoding: 33 33 2
Width: 164
Flags: MW
HStem: -16.0703 85.0898 613.52 20G
VStem: -0.259766 85.0898
LayerCount: 2
Fore
SplineSet
82.1201171875 633.51953125 m 1
 82.1201171875 626.01953125 l 2
 82.1201171875 411.958984375 59.7333984375 136.643554688 59.7255859375 136.54296875 c 2
 59.166015625 129.650390625 l 1
 52.25 129.650390625 l 1
 32.3701171875 129.650390625 l 1
 25.4541015625 129.650390625 l 1
 24.89453125 136.543945312 l 2
 24.88671875 136.643554688 2.5 412.139648438 2.5 626.01953125 c 2
 2.5 633.51953125 l 1
 10 633.51953125 l 1
 74.6201171875 633.51953125 l 1
 82.1201171875 633.51953125 l 1
-0.259765625 26.48046875 m 0
 -0.259765625 49.97265625 18.791015625 69.01953125 42.2900390625 69.01953125 c 0
 65.7822265625 69.01953125 84.830078125 49.9716796875 84.830078125 26.48046875 c 0
 84.830078125 2.98046875 65.783203125 -16.0703125 42.2900390625 -16.0703125 c 0
 18.7900390625 -16.0703125 -0.259765625 2.9794921875 -0.259765625 26.48046875 c 0
EndSplineSet
EndChar

StartChar: comma
Encoding: 44 44 3
Width: 173
Flags: MW
HStem: -16.0908 123.1<44.064 61.7847>
VStem: -0.5 123.1<41.4404 62.4502>
LayerCount: 2
Fore
SplineSet
61.0498046875 107.008789062 m 0
 95.033203125 107.008789062 122.599609375 81.7314453125 122.599609375 50.59375 c 0
 122.599609375 32.287109375 122.026367188 21.0966796875 115.109375 2.4013671875 c 0
 104.24609375 -26.8388671875 73.0498046875 -41.1533203125 40.681640625 -57.8115234375 c 2
 33.97265625 -61.578125 l 1
 30.37890625 -54.775390625 l 2
 27.982421875 -51.5068359375 23.5703125 -45.5810546875 20.7275390625 -41.8076171875 c 2
 16.9853515625 -36.8388671875 l 1
 24.041015625 -34.3681640625 l 2
 30.3623046875 -32.154296875 40.3759765625 -28.60546875 41.90625 -28.056640625 c 0
 47.9453125 -25.78515625 58.3095703125 -20.3564453125 64.5283203125 -16 c 1
 61.3388671875 -16.1279296875 62.51953125 -16.0908203125 61.0498046875 -16.0908203125 c 0
 27.078125 -16.0908203125 -0.5 11.4755859375 -0.5 45.458984375 c 0
 -0.5 79.44140625 27.0673828125 107.008789062 61.0498046875 107.008789062 c 0
EndSplineSet
EndChar

StartChar: hyphen
Encoding: 45 45 4
Width: 282
Flags: MW
HStem: 168.729 79.5703
VStem: -1.5 231.27
LayerCount: 2
Fore
SplineSet
-1.5 248.298828125 m 1
 6 248.298828125 l 1
 222.26953125 248.298828125 l 1
 229.76953125 248.298828125 l 1
 229.76953125 240.798828125 l 1
 229.76953125 176.228515625 l 1
 229.76953125 168.728515625 l 1
 222.26953125 168.728515625 l 1
 6 168.728515625 l 1
 -1.5 168.728515625 l 1
 -1.5 176.228515625 l 1
 -1.5 240.798828125 l 1
 -1.5 248.298828125 l 1
EndSplineSet
EndChar

StartChar: period
Encoding: 46 46 5
Width: 169
Flags: MW
HStem: -16 123.119<44.0591 78.0601>
VStem: -0.5 123.119<28.5591 62.5547 28.5591 62.5601>
LayerCount: 2
Fore
SplineSet
-0.5 45.5595703125 m 0
 -0.5 79.560546875 27.05859375 107.119140625 61.0595703125 107.119140625 c 0
 95.0615234375 107.119140625 122.619140625 79.5498046875 122.619140625 45.5595703125 c 0
 122.619140625 11.55859375 95.060546875 -16 61.0595703125 -16 c 0
 27.05859375 -16 -0.5 11.55859375 -0.5 45.5595703125 c 0
EndSplineSet
EndChar

StartChar: slash
Encoding: 47 47 6
Width: 239
Flags: MW
VStem: -0.831055 219.663
LayerCount: 2
Fore
SplineSet
-0.8310546875 -8.623046875 m 1
 1.2119140625 -1.5576171875 l 1
 183.271484375 628.05859375 l 1
 185.390625 635.560546875 l 1
 192.805664062 633.153320312 l 2
 200.216796875 630.747070312 212.0234375 626.807617188 212.03125 626.805664062 c 2
 218.83203125 624.58984375 l 1
 216.874023438 617.852539062 l 1
 34.21484375 -10.6083984375 l 1
 32.193359375 -17.7275390625 l 1
 25.0478515625 -15.80078125 l 2
 17.712890625 -13.82421875 6.4150390625 -10.654296875 6.4052734375 -10.6513671875 c 2
 -0.8310546875 -8.623046875 l 1
EndSplineSet
EndChar

StartChar: zero
Encoding: 48 48 7
Width: 517
Flags: MW
HStem: -16.0801 34.8604 598.66 34.8496
VStem: -0.5 79.5801 382.57 79.5996
LayerCount: 2
Fore
SplineSet
245.009765625 633.509765625 m 0
 363.225585938 633.509765625 462.169921875 557.110351562 462.169921875 318.62109375 c 0
 462.169921875 133.345703125 407.962890625 -16.0703125 247.1796875 -16.080078125 c 0
 85.7763671875 -16.080078125 -0.5 119.918945312 -0.5 314.1640625 c 0
 -0.5 547.853515625 109.520507812 633.509765625 245.009765625 633.509765625 c 0
238.639648438 598.66015625 m 0
 123.5234375 598.66015625 79.080078125 471.07421875 79.080078125 321.646484375 c 0
 79.080078125 140.4765625 163.870117188 18.7802734375 240.060546875 18.7802734375 c 0
 315.701171875 18.7802734375 382.5703125 99.369140625 382.5703125 318.604492188 c 0
 382.5703125 465.99609375 347.276367188 598.66015625 238.639648438 598.66015625 c 0
EndSplineSet
EndChar

StartChar: one
Encoding: 49 49 8
Width: 152
Flags: MW
HStem: 0 21G<-0.5 -0.5 -0.5 7 7 71.5498 71.5498 79.0498> 599.68 20G
VStem: -0.5 79.5498<0 7.5 7.5 612.18 612.18 619.68>
LayerCount: 2
Fore
SplineSet
-0.5 0 m 1
 -0.5 7.5 l 1
 -0.5 612.1796875 l 1
 -0.5 619.6796875 l 1
 7 619.6796875 l 1
 71.5498046875 619.6796875 l 1
 79.0498046875 619.6796875 l 1
 79.0498046875 612.1796875 l 1
 79.0498046875 7.5 l 1
 79.0498046875 0 l 1
 71.5498046875 0 l 1
 7 0 l 1
 -0.5 0 l 1
EndSplineSet
EndChar

StartChar: two
Encoding: 50 50 9
Width: 473
Flags: MW
HStem: 0 77.8174 599.16 34.3496
VStem: 7.88379 54.3018 340.811 83.5898
LayerCount: 2
Fore
SplineSet
7.8837890625 483.892578125 m 1
 8.529296875 491.171875 l 2
 15.2763671875 567.29296875 99.716796875 633.51953125 214.8203125 633.509765625 c 0
 319.221679688 633.509765625 424.400390625 597.799804688 424.400390625 484.63671875 c 0
 424.400390625 396.987304688 356.856445312 337.489257812 318.909179688 303.346679688 c 2
 73.0703125 77.8173828125 l 1
 418.974609375 77.66015625 l 1
 428.600585938 77.6552734375 l 1
 426.2421875 68.5400390625 l 1
 409.971679688 5.662109375 l 1
 408.541015625 0 l 1
 402.700195312 0 l 1
 7.669921875 0 l 1
 0.169921875 0 l 1
 0.169921875 7.5 l 1
 0.169921875 54.5087890625 l 1
 0.169921875 57.6748046875 l 1
 2.537109375 59.841796875 l 1
 229.455078125 267.565429688 l 2
 260.443359375 296.599609375 299.145507812 328.662109375 315.759765625 356.270507812 c 0
 333.194335938 385.276367188 340.810546875 411.123046875 340.810546875 480.7421875 c 0
 340.810546875 575.043945312 267.727539062 599.16015625 200.370117188 599.16015625 c 0
 132.2109375 599.16015625 68.62109375 568.048828125 62.7421875 485.467773438 c 2
 62.185546875 477.655273438 l 1
 54.4052734375 478.548828125 l 1
 15.14453125 483.05859375 l 1
 7.8837890625 483.892578125 l 1
EndSplineSet
EndChar

StartChar: three
Encoding: 51 51 10
Width: 430
Flags: MW
HStem: -16.0703 34.8398 317.45 35.0693 598.72 34.79
VStem: 296.47 79.6006 307.25 79.5898
LayerCount: 2
Fore
SplineSet
376.0703125 475.743164062 m 0xf0
 376.0703125 411.798828125 327.116210938 353.673828125 272.182617188 332.958007812 c 1
 328.99609375 314.338867188 386.83984375 261.908203125 386.83984375 182.71875 c 0
 386.83984375 7.5947265625 226.110351562 -16.0703125 176.580078125 -16.0703125 c 0
 171.95703125 -16.0703125 167.411132812 -15.9736328125 162.942382812 -15.7822265625 c 0
 59.5029296875 -11.3671875 -4.3505859375 44.205078125 -1.4931640625 109.866210938 c 2
 -1.134765625 118.086914062 l 1
 7.0166015625 116.970703125 l 1
 55.166015625 110.380859375 l 1
 62.05859375 109.4375 l 1
 61.6357421875 102.494140625 l 2
 57.193359375 29.515625 122.443359375 18.7900390625 168.149414062 18.76953125 c 0
 277.466796875 18.76953125 307.25 111.400390625 307.25 177.884765625 c 0xe8
 307.25 289.807617188 220.970703125 317.450195312 160.959960938 317.450195312 c 2
 153.459960938 317.450195312 l 1
 153.459960938 324.950195312 l 1
 153.459960938 345.01953125 l 1
 153.459960938 352.51953125 l 1
 160.959960938 352.51953125 l 2
 228.798828125 352.51953125 296.469726562 423.951171875 296.469726562 471.010742188 c 0
 296.469726562 576.920898438 235.793945312 598.719726562 178.479492188 598.719726562 c 0
 118.837890625 598.719726562 85.3369140625 568.974609375 77.8544921875 535.953125 c 2
 76.1806640625 528.564453125 l 1
 68.8095703125 530.3125 l 1
 27.189453125 540.182617188 l 1
 18.7724609375 542.178710938 l 1
 21.94140625 550.227539062 l 2
 45.9580078125 611.231445312 119.298828125 633.509765625 177.580078125 633.509765625 c 0
 306.956054688 633.509765625 376.0703125 572.366210938 376.0703125 475.743164062 c 0xf0
EndSplineSet
EndChar

StartChar: four
Encoding: 52 52 11
Width: 468
Flags: MW
HStem: 0 21G<280.56 288.06 280.56 280.56 288.06 352.609 352.609 360.109> 178.49 34.8594 599.68 20G
VStem: 280.56 79.5498
LayerCount: 2
Fore
SplineSet
49.1416015625 213.349609375 m 1
 280.559570312 213.349609375 l 1
 280.559570312 503.309570312 l 1
 49.1416015625 213.349609375 l 1
360.109375 612.1796875 m 1
 360.109375 213.370117188 l 1
 431.01953125 213.370117188 l 1
 438.51953125 213.370117188 l 1
 438.51953125 205.870117188 l 1
 438.51953125 185.990234375 l 1
 438.51953125 178.490234375 l 1
 431.01953125 178.490234375 l 1
 360.109375 178.490234375 l 1
 360.109375 7.5 l 1
 360.109375 0 l 1
 352.609375 0 l 1
 288.059570312 0 l 1
 280.559570312 0 l 1
 280.559570312 7.5 l 1
 280.559570312 178.490234375 l 1
 8 178.490234375 l 1
 0.5 178.490234375 l 1
 0.5 185.864257812 l 1
 0.5 205.154296875 l 1
 0.5 207.783203125 l 1
 2.30859375 210.010742188 l 1
 332.698242188 616.859375 l 1
 334.950195312 619.6796875 l 1
 338.559570312 619.6796875 l 1
 352.609375 619.6796875 l 1
 360.109375 619.6796875 l 1
 360.109375 612.1796875 l 1
EndSplineSet
EndChar

StartChar: five
Encoding: 53 53 12
Width: 465
Flags: MW
HStem: -16.0703 34.79 380.72 35.0498 540.04 79.6396
VStem: 21.2793 34.8799 333.56 84.9795
LayerCount: 2
Fore
SplineSet
64.0703125 104.677734375 m 1
 64.3994140625 98.31640625 l 2
 67.4765625 38.7705078125 112.567382812 18.73046875 174.6796875 18.7197265625 c 0
 298.16796875 18.7197265625 333.559570312 93.39453125 333.559570312 220 c 0
 333.559570312 371.734375 204.794921875 380.719726562 151.609375 380.719726562 c 0
 101.885742188 380.719726562 72.927734375 374.071289062 32.150390625 353.55078125 c 2
 21.279296875 348.079101562 l 1
 21.279296875 360.25 l 1
 21.279296875 612.1796875 l 1
 21.279296875 619.6796875 l 1
 28.779296875 619.6796875 l 1
 361.969726562 619.6796875 l 1
 371.578125 619.6796875 l 1
 369.245117188 610.358398438 l 1
 353.064453125 545.71875 l 1
 351.642578125 540.040039062 l 1
 345.7890625 540.040039062 l 1
 56.1591796875 540.040039062 l 1
 56.1591796875 402.328125 l 1
 90.0859375 413.642578125 122.252929688 415.76953125 161.58984375 415.76953125 c 0
 228.06640625 415.76953125 418.5390625 394.803710938 418.5390625 214.319335938 c 0
 418.5390625 41.7421875 278.521484375 -16.0703125 174.6796875 -16.0703125 c 0
 76.5576171875 -16.0703125 6.5556640625 34.3134765625 0.529296875 102.721679688 c 2
 -0.275390625 111.848632812 l 1
 8.8310546875 110.833984375 l 1
 57.740234375 105.383789062 l 1
 64.0703125 104.677734375 l 1
EndSplineSet
EndChar

StartChar: six
Encoding: 54 54 13
Width: 443
Flags: MW
HStem: -16.0703 35.3203 370.4 34.4795
VStem: 0.5 87.6699 329.96 79.5
LayerCount: 2
Fore
SplineSet
88.169921875 194.83984375 m 0
 88.169921875 90.6572265625 132.076171875 19.25 218.76953125 19.25 c 0
 295.931640625 19.25 329.959960938 107.754882812 329.959960938 193.37109375 c 0
 329.959960938 272.844726562 302.19140625 370.400390625 213.819335938 370.400390625 c 0
 128.741210938 370.400390625 88.169921875 277.576171875 88.169921875 194.83984375 c 0
84.3212890625 345.15234375 m 1
 108.662109375 372.78515625 152.954101562 404.879882812 216.649414062 404.879882812 c 0
 353.580078125 404.879882812 409.450195312 297.7734375 409.459960938 205.502929688 c 0
 409.459960938 38.373046875 296.177734375 -16.0703125 211.58984375 -16.0703125 c 0
 114.526367188 -16.0703125 0.5 43.7265625 0.5 258.442382812 c 0
 0.5 479.430664062 199.936523438 598.34765625 335.47265625 628.524414062 c 0
 341.581054688 629.909179688 351.11328125 632.049804688 357.298828125 633.357421875 c 2
 364.3515625 634.84765625 l 1
 366.120117188 627.859375 l 2
 367.748046875 621.639648438 369.545898438 614.834960938 369.545898438 614.834960938 c 1
 371.314453125 608.139648438 l 1
 364.48828125 606.104492188 l 2
 254.645507812 573.1015625 121.677734375 519.653320312 84.3212890625 345.15234375 c 1
EndSplineSet
EndChar

StartChar: seven
Encoding: 55 55 14
Width: 416
Flags: MW
HStem: 540.02 79.6504
LayerCount: 2
Fore
SplineSet
378.9375 619.669921875 m 1
 374.674804688 609.563476562 l 1
 112.794921875 -11.4267578125 l 1
 109.842773438 -18.5927734375 l 1
 102.77734375 -15.4072265625 l 1
 102.77734375 -15.4072265625 89.6005859375 -9.62109375 84.7333984375 -7.580078125 c 2
 77.9541015625 -4.7373046875 l 1
 80.765625 1.908203125 l 1
 308.418945312 540.01953125 l 1
 6 540.01953125 l 1
 -3.314453125 540.01953125 l 1
 -1.3271484375 549.120117188 l 1
 12.79296875 613.770507812 l 1
 14.0810546875 619.669921875 l 1
 20.1201171875 619.669921875 l 1
 368.672851562 619.669921875 l 1
 378.9375 619.669921875 l 1
EndSplineSet
EndChar

StartChar: eight
Encoding: 56 56 15
Width: 421
Flags: MW
HStem: -16.0703 34.8008 598.81 34.71
VStem: -0.129883 79.6299 276.98 68.8799 281.98 79.6201
LayerCount: 2
Fore
SplineSet
345.860351562 501.694335938 m 0xf0
 345.860351562 439.966796875 311.838867188 407.626953125 219.028320312 336.559570312 c 1
 316.651367188 261.543945312 361.610351562 218.124023438 361.600585938 140.650390625 c 0xe8
 361.600585938 59.75390625 290.567382812 -16.0703125 177.680664062 -16.0703125 c 0
 60.1953125 -16.0703125 -0.1298828125 63.3125 -0.1298828125 134.434570312 c 0
 -0.1298828125 213.294921875 45.5498046875 256.501953125 121.576171875 315.040039062 c 1
 18.34765625 397.171875 6.5 428.96875 6.5 483.025390625 c 0
 6.5 556.584960938 61.779296875 633.51953125 178.120117188 633.51953125 c 0
 280.359375 633.51953125 345.860351562 570.838867188 345.860351562 501.694335938 c 0xf0
178.970703125 598.809570312 m 0
 117.877929688 598.809570312 86.0400390625 547.311523438 86.0400390625 506.91015625 c 0
 86.0400390625 459.908203125 95.3466796875 437.27734375 191.45703125 352.984375 c 1
 259.440429688 414.583984375 276.98046875 444.276367188 276.98046875 493.91015625 c 0xf0
 276.98046875 550.407226562 237.311523438 598.809570312 178.970703125 598.809570312 c 0
79.5 142.8203125 m 0
 79.5 57.205078125 142.884765625 18.73046875 184.740234375 18.73046875 c 0
 241.559570312 18.73046875 281.98046875 62.291015625 281.98046875 113.639648438 c 0xe8
 281.98046875 178.155273438 256.283203125 205.365234375 149.045898438 299.3671875 c 1
 104.365234375 258.404296875 79.5 233.000976562 79.5 142.8203125 c 0
EndSplineSet
EndChar

StartChar: nine
Encoding: 57 57 16
Width: 454
Flags: MW
HStem: 215.9 34.2695 598.24 35.2793
VStem: -0.5 78.9902 318.16 87.04
LayerCount: 2
Fore
SplineSet
78.490234375 425.6484375 m 0
 78.490234375 346.836914062 106.037109375 250.169921875 193.610351562 250.169921875 c 0
 277.938476562 250.169921875 318.16015625 342.154296875 318.16015625 424.190429688 c 0
 318.16015625 527.481445312 274.625 598.240234375 188.700195312 598.240234375 c 0
 112.23828125 598.240234375 78.490234375 510.5625 78.490234375 425.6484375 c 0
-0.5 413.580078125 m 0
 -0.5 579.416015625 111.965820312 633.51953125 195.80078125 633.51953125 c 0
 291.953125 633.51953125 405.209960938 580.71484375 405.200195312 361.094726562 c 0
 405.200195312 154.80859375 236.831054688 51.1572265625 145.514648438 16.7431640625 c 0
 110.161132812 3.439453125 54.650390625 -15.6142578125 54.6162109375 -15.6259765625 c 2
 47.0966796875 -18.267578125 l 1
 44.916015625 -10.6025390625 l 2
 44.9140625 -10.595703125 41.4267578125 1.265625 39.5439453125 7.822265625 c 2
 37.5751953125 14.6826171875 l 1
 44.623046875 16.7216796875 l 2
 49.466796875 18.123046875 55.158203125 19.814453125 57.84765625 20.6005859375 c 2
 57.84765625 20.6005859375 169.061523438 51.7177734375 238.607421875 117.181640625 c 0
 270.342773438 147.344726562 300.3984375 194.2109375 319.909179688 272.671875 c 1
 294.796875 245.427734375 251.9921875 215.900390625 190.770507812 215.900390625 c 0
 55.0126953125 215.900390625 -0.5 322.140625 -0.5 413.580078125 c 0
EndSplineSet
EndChar

StartChar: colon
Encoding: 58 58 17
Width: 193
Flags: MW
HStem: -16.0596 123.119 312.82 123.12
VStem: 0.5 123.119
LayerCount: 2
Fore
SplineSet
123.619140625 374.379882812 m 0
 123.619140625 340.37890625 96.060546875 312.8203125 62.0595703125 312.8203125 c 0
 28.0576171875 312.8203125 0.5 340.389648438 0.5 374.379882812 c 0
 0.5 408.380859375 28.05859375 435.940429688 62.0595703125 435.940429688 c 0
 96.060546875 435.940429688 123.619140625 408.380859375 123.619140625 374.379882812 c 0
0.5 45.5 m 0
 0.5 79.5009765625 28.05859375 107.059570312 62.0595703125 107.059570312 c 0
 96.0615234375 107.059570312 123.619140625 79.490234375 123.619140625 45.5 c 0
 123.619140625 11.4990234375 96.060546875 -16.0595703125 62.0595703125 -16.0595703125 c 0
 28.05859375 -16.0595703125 0.5 11.4990234375 0.5 45.5 c 0
EndSplineSet
EndChar

StartChar: semicolon
Encoding: 59 59 18
Width: 192
Flags: MW
HStem: -16.0908 123.1<44.064 61.7847> 320.319 123.08<44.0493 78.0303 44.0439 78.0356>
VStem: -0.5 123.1<38.4565 62.4502>
LayerCount: 2
Fore
SplineSet
61.0498046875 107.008789062 m 0
 95.033203125 107.008789062 122.599609375 80.5810546875 122.599609375 48.0263671875 c 0
 122.599609375 28.88671875 122.026367188 17.1875 115.109375 -2.3583984375 c 0
 104.24609375 -32.9296875 73.0498046875 -47.8955078125 40.681640625 -65.3115234375 c 2
 33.97265625 -69.078125 l 1
 30.37890625 -62.275390625 l 2
 27.982421875 -58.373046875 23.5703125 -51.2978515625 20.7275390625 -46.79296875 c 2
 16.9853515625 -40.861328125 l 1
 24.041015625 -37.912109375 l 2
 30.3623046875 -35.26953125 40.3759765625 -31.0322265625 41.90625 -30.376953125 c 0
 47.9453125 -27.66796875 58.3095703125 -21.1943359375 64.5283203125 -16 c 1
 61.3388671875 -16.1279296875 62.51953125 -16.0908203125 61.0498046875 -16.0908203125 c 0
 27.078125 -16.0908203125 -0.5 11.4755859375 -0.5 45.458984375 c 0
 -0.5 79.44140625 27.0673828125 107.008789062 61.0498046875 107.008789062 c 0
122.580078125 381.859375 m 0
 122.580078125 347.877929688 95.03125 320.319335938 61.0400390625 320.319335938 c 0
 27.05859375 320.319335938 -0.5 347.876953125 -0.5 381.859375 c 0
 -0.5 415.83984375 27.0478515625 443.399414062 61.0400390625 443.399414062 c 0
 95.0205078125 443.399414062 122.580078125 415.850585938 122.580078125 381.859375 c 0
EndSplineSet
EndChar

StartChar: question
Encoding: 63 63 19
Width: 414
Flags: MW
HStem: -16.0703 85.0898 589.77 43.7402
VStem: 122.92 85.0898 148.03 34.7891
LayerCount: 2
Fore
SplineSet
174.119140625 633.509765625 m 0xd0
 290.12890625 633.51953125 360.950195312 567.6640625 360.950195312 489.01953125 c 0
 360.950195312 403.750976562 320.788085938 368.756835938 264.098632812 303.9765625 c 0
 210.547851562 242.666015625 182.819335938 188.216796875 182.819335938 137.150390625 c 2
 182.819335938 129.650390625 l 1
 175.319335938 129.650390625 l 1
 155.530273438 129.650390625 l 1
 148.030273438 129.650390625 l 1
 148.030273438 137.150390625 l 2
 148.030273438 191.107421875 169.2578125 249.389648438 193.2421875 285.763671875 c 0
 245.831054688 365.385742188 261.607421875 376.3671875 274.3203125 426.497070312 c 0
 285.30859375 469.758789062 286.37109375 507.970703125 273.499023438 538.120117188 c 0
 259.533203125 570.62890625 225.705078125 589.76953125 174.290039062 589.76953125 c 0
 122.126953125 589.76953125 66.7099609375 562.7890625 26.935546875 466.194335938 c 2
 24.208984375 459.57421875 l 1
 17.4697265625 461.989257812 l 1
 17.4697265625 461.989257812 9.5556640625 464.827148438 3.9853515625 466.80078125 c 2
 -3.0234375 469.284179688 l 1
 -0.6005859375 476.314453125 l 2
 1.2431640625 481.663085938 4.451171875 490.520507812 7.3193359375 497.901367188 c 0
 45.44140625 597.041992188 109.76171875 633.509765625 174.119140625 633.509765625 c 0xd0
122.919921875 26.48046875 m 0xe0
 122.919921875 49.97265625 141.969726562 69.01953125 165.469726562 69.01953125 c 0
 188.96875 69.01953125 208.021484375 49.96875 208.009765625 26.48046875 c 0
 208.009765625 2.98046875 188.961914062 -16.0703125 165.469726562 -16.0703125 c 0
 141.96875 -16.0703125 122.919921875 2.9794921875 122.919921875 26.48046875 c 0xe0
EndSplineSet
EndChar

StartChar: A
Encoding: 65 65 20
Width: 481
Flags: MW
HStem: 0 21G<-0.43457 10 -0.43457 -0.43457 10 27.8203 27.8203 33.124 365.68 370.96 365.68 365.68 370.96 440.24 440.24 450.79> 200.36 27.3398
LayerCount: 2
Fore
SplineSet
195.717773438 470.837890625 m 1
 115.521484375 227.700195312 l 1
 281.462890625 227.700195312 l 1
 195.717773438 470.837890625 l 1
210.209960938 611.516601562 m 2
 213.694335938 622.212890625 229.000976562 622.510742188 232.762695312 611.715820312 c 2
 447.32421875 9.7255859375 l 1
 450.790039062 0 l 1
 440.240234375 0 l 1
 370.959960938 0 l 1
 365.6796875 0 l 1
 363.899414062 4.970703125 l 1
 293.91015625 200.360351562 l 1
 103.954101562 200.360351562 l 1
 34.8916015625 5 l 1
 33.1240234375 0 l 1
 27.8203125 0 l 1
 10 0 l 1
 -0.4345703125 0 l 1
 2.890625 9.6533203125 l 1
 210.209960938 611.516601562 l 2
EndSplineSet
EndChar

StartChar: B
Encoding: 66 66 21
Width: 462
Flags: MW
HStem: 0.0400391 34.8604 371.28 34.8701 584.78 34.8994
VStem: 0.5 79.4502<0.0400391 34.9004 34.9004 34.9004 34.9004 371.28 406.15 584.78> 293.88 79.6299 338.92 79.6094
LayerCount: 2
Fore
SplineSet
139.069335938 584.780273438 m 2xf8
 79.9501953125 584.780273438 l 1
 79.9501953125 406.150390625 l 1
 103.779296875 406.150390625 l 2
 206.33203125 406.150390625 293.879882812 438.916992188 293.879882812 499.221679688 c 0
 293.879882812 566.130859375 191.748046875 584.780273438 139.069335938 584.780273438 c 2xf8
79.9501953125 34.900390625 m 1
 103.779296875 34.900390625 l 2
 260.694335938 34.900390625 338.919921875 120.33203125 338.919921875 203.08984375 c 0xf4
 338.919921875 288.836914062 243.833984375 371.280273438 103.779296875 371.280273438 c 2
 79.9501953125 371.280273438 l 1
 79.9501953125 34.900390625 l 1
373.509765625 502.448242188 m 0xf8
 373.509765625 431.748046875 309.883789062 399.224609375 252.486328125 386.907226562 c 1
 332.059570312 366.883789062 418.521484375 310.265625 418.529296875 205.662109375 c 0xf4
 418.529296875 170.56640625 413.7578125 118.638671875 373.08203125 75.6640625 c 0
 331.991210938 32.1669921875 240.982421875 0.0400390625 103.790039062 0.0400390625 c 2
 8 0.0400390625 l 1
 0.5 0.0400390625 l 1
 0.5 7.3603515625 l 1
 0.5 612.1796875 l 1
 0.5 619.6796875 l 1
 8 619.6796875 l 1
 175.389648438 619.6796875 l 2
 271.5 619.6796875 373.509765625 594.015625 373.509765625 502.448242188 c 0xf8
EndSplineSet
EndChar

StartChar: C
Encoding: 67 67 22
Width: 583
Flags: MW
HStem: 592.89 40.6299
VStem: 0.5 79.6299
LayerCount: 2
Fore
SplineSet
96.38671875 51.62890625 m 0
 37.373046875 112.938476562 0.5 202.765625 0.5 304.469726562 c 0
 0.5 508.53515625 126.04296875 633.51953125 299.959960938 633.51953125 c 0
 415.909179688 633.51953125 502.807617188 574.090820312 518.896484375 451.032226562 c 2
 519.8203125 443.96875 l 1
 512.813476562 442.682617188 l 1
 512.813476562 442.682617188 503.86328125 441.041992188 500.102539062 440.293945312 c 2
 493.133789062 438.909179688 l 1
 491.373046875 445.791992188 l 2
 466.173828125 544.333984375 403.150390625 592.889648438 305.330078125 592.889648438 c 0
 170.010742188 592.889648438 80.1298828125 445.630859375 80.1298828125 308.080078125 c 0
 80.1298828125 179.337890625 155.58203125 79.232421875 221.333007812 40.744140625 c 0
 285.76953125 2.830078125 419.779296875 18.154296875 467.48828125 102.400390625 c 0
 473.6484375 113.380859375 482.73046875 136.731445312 487.538085938 157.7890625 c 2
 488.869140625 163.620117188 l 1
 494.849609375 163.620117188 l 1
 518.859375 163.620117188 l 1
 527.1796875 163.620117188 l 1
 526.319335938 155.344726562 l 2
 520.879882812 103.009765625 497.360351562 57.4619140625 453.884765625 22.17578125 c 0
 334.646484375 -74.548828125 169.440429688 -24.255859375 96.38671875 51.62890625 c 0
EndSplineSet
EndChar

StartChar: D
Encoding: 68 68 23
Width: 516
Flags: MW
HStem: 0 34.8604 584.78 34.8994
VStem: 0.5 79.4697 368.1 85.4707
LayerCount: 2
Fore
SplineSet
79.9697265625 34.8603515625 m 1
 137.450195312 34.8603515625 l 2
 267.642578125 34.8603515625 368.08984375 177.118164062 368.099609375 316.108398438 c 0
 368.099609375 491.122070312 264.904296875 584.780273438 137.450195312 584.780273438 c 2
 79.9697265625 584.780273438 l 1
 79.9697265625 34.8603515625 l 1
8 619.6796875 m 1
 137.450195312 619.6796875 l 2
 369.936523438 619.6796875 453.580078125 478.854492188 453.5703125 338.837890625 c 0
 453.5703125 216.103515625 415.272460938 130.99609375 356.008789062 76.857421875 c 0
 296.793945312 22.671875 217.666992188 0 137.440429688 0 c 2
 8 0 l 1
 0.5 0 l 1
 0.5 7.5 l 1
 0.5 612.1796875 l 1
 0.5 619.6796875 l 1
 8 619.6796875 l 1
EndSplineSet
EndChar

StartChar: E
Encoding: 69 69 24
Width: 457
Flags: MW
HStem: 0 34.8799 314.39 34.8799 584.8 34.8799
VStem: 0.5 79.46
LayerCount: 2
Fore
SplineSet
79.9599609375 314.389648438 m 1
 79.9599609375 34.8798828125 l 1
 397.5390625 34.8798828125 l 1
 406.413085938 34.8798828125 l 1
 404.934570312 26.1298828125 l 1
 401.575195312 6.25 l 1
 400.518554688 0 l 1
 394.1796875 0 l 1
 8 0 l 1
 0.5 0 l 1
 0.5 7.5 l 1
 0.5 612.1796875 l 1
 0.5 619.6796875 l 1
 8 619.6796875 l 1
 394.1796875 619.6796875 l 1
 401.176757812 619.6796875 l 1
 401.662109375 612.69921875 l 1
 403.041992188 592.819335938 l 1
 403.598632812 584.799804688 l 1
 395.559570312 584.799804688 l 1
 79.9599609375 584.799804688 l 1
 79.9599609375 349.26953125 l 1
 276.609375 349.26953125 l 1
 284.109375 349.26953125 l 1
 284.109375 341.76953125 l 1
 284.109375 321.889648438 l 1
 284.109375 314.389648438 l 1
 276.609375 314.389648438 l 1
 79.9599609375 314.389648438 l 1
EndSplineSet
EndChar

StartChar: F
Encoding: 70 70 25
Width: 454
Flags: MW
HStem: 0 21G<0.5 8 0.5 0.5 8 72.46 72.46 79.96> 314.39 34.8799 584.8 34.8799
VStem: 0.5 79.46
LayerCount: 2
Fore
SplineSet
400.518554688 619.6796875 m 1
 401.575195312 613.4296875 l 1
 404.934570312 593.549804688 l 1
 406.413085938 584.799804688 l 1
 397.5390625 584.799804688 l 1
 79.9599609375 584.799804688 l 1
 79.9599609375 349.26953125 l 1
 276.609375 349.26953125 l 1
 284.109375 349.26953125 l 1
 284.109375 341.76953125 l 1
 284.109375 321.889648438 l 1
 284.109375 314.389648438 l 1
 276.609375 314.389648438 l 1
 79.9599609375 314.389648438 l 1
 79.9599609375 7.5 l 1
 79.9599609375 0 l 1
 72.4599609375 0 l 1
 8 0 l 1
 0.5 0 l 1
 0.5 7.5 l 1
 0.5 612.1796875 l 1
 0.5 619.6796875 l 1
 8 619.6796875 l 1
 394.1796875 619.6796875 l 1
 400.518554688 619.6796875 l 1
EndSplineSet
EndChar

StartChar: G
Encoding: 71 71 26
Width: 580
Flags: MW
HStem: 428.175 21G 592.97 40.5498
VStem: 1.34082 80.0498<254.758 352.439> 437.41 79.96
LayerCount: 2
Fore
SplineSet
484.805664062 428.174804688 m 1
 482.901367188 434.466796875 l 2
 447.439453125 551.638671875 379.555664062 592.959960938 298.55078125 592.969726562 c 0
 150.73828125 592.969726562 81.390625 419.185546875 81.390625 306.45703125 c 0
 81.390625 183.107421875 150.939453125 90.0830078125 218.161132812 52.130859375 c 0
 220.577148438 50.763671875 223.041015625 49.4658203125 225.546875 48.2373046875 c 0
 288.8828125 17.193359375 378.061523438 30.943359375 419.016601562 110.96484375 c 0
 433.641601562 139.428710938 437.41015625 184.403320312 437.41015625 209.549804688 c 2
 437.5 307.546875 l 1
 437.506835938 314.859375 l 1
 445 314.859375 l 1
 509.959960938 314.859375 l 1
 517.466796875 314.859375 l 1
 517.459960938 307.533203125 l 1
 517.370117188 209.543945312 l 2
 517.370117188 120.57421875 488.356445312 69.2470703125 446.517578125 34.185546875 c 0
 392.251953125 -11.1533203125 319.8359375 -16.0302734375 292.270507812 -16.0302734375 c 0
 240.844726562 -16.0302734375 162.571289062 -2.62109375 95.5361328125 62.2978515625 c 0
 36.1826171875 119.891601562 1.3408203125 206.024414062 1.3408203125 303.491210938 c 0
 1.3408203125 401.38671875 35.091796875 498.836914062 94.701171875 556.231445312 c 0
 169.841796875 628.463867188 244.037109375 633.51953125 298.890625 633.51953125 c 0
 399.547851562 633.51953125 495.0078125 566.374023438 510.177734375 439.510742188 c 2
 511.040039062 432.294921875 l 1
 503.85546875 431.205078125 l 1
 503.85546875 431.205078125 496.4765625 430.087890625 491.29296875 429.23828125 c 2
 484.805664062 428.174804688 l 1
EndSplineSet
EndChar

StartChar: H
Encoding: 72 72 27
Width: 525
Flags: MW
HStem: 0 21G<0.5 8 0.5 0.5 8 72.4707 72.4707 79.9707 375.931 383.431 375.931 375.931 383.431 447.98 447.98 455.48> 310.95 34.8799 599.68 20G
VStem: 0.5 79.4707<0 7.5 7.5 310.95 345.83 612.18 612.18 619.68> 375.931 79.5498
LayerCount: 2
Fore
SplineSet
455.48046875 619.6796875 m 1
 455.48046875 612.1796875 l 1
 455.48046875 7.5 l 1
 455.48046875 0 l 1
 447.98046875 0 l 1
 383.430664062 0 l 1
 375.930664062 0 l 1
 375.930664062 7.5 l 1
 375.930664062 310.950195312 l 1
 79.970703125 310.950195312 l 1
 79.970703125 7.5 l 1
 79.970703125 0 l 1
 72.470703125 0 l 1
 8 0 l 1
 0.5 0 l 1
 0.5 7.5 l 1
 0.5 612.1796875 l 1
 0.5 619.6796875 l 1
 8 619.6796875 l 1
 72.470703125 619.6796875 l 1
 79.970703125 619.6796875 l 1
 79.970703125 612.1796875 l 1
 79.970703125 345.830078125 l 1
 375.930664062 345.830078125 l 1
 375.930664062 612.1796875 l 1
 375.930664062 619.6796875 l 1
 383.430664062 619.6796875 l 1
 447.98046875 619.6796875 l 1
 455.48046875 619.6796875 l 1
EndSplineSet
EndChar

StartChar: I
Encoding: 73 73 28
Width: 144
Flags: MW
HStem: 0 21G<-0.5 -0.5 -0.5 7 7 71.5498 71.5498 79.0498> 599.68 20G
VStem: -0.5 79.5498<0 7.5 7.5 612.18 612.18 619.68>
LayerCount: 2
Fore
SplineSet
-0.5 0 m 1
 -0.5 7.5 l 1
 -0.5 612.1796875 l 1
 -0.5 619.6796875 l 1
 7 619.6796875 l 1
 71.5498046875 619.6796875 l 1
 79.0498046875 619.6796875 l 1
 79.0498046875 612.1796875 l 1
 79.0498046875 7.5 l 1
 79.0498046875 0 l 1
 71.5498046875 0 l 1
 7 0 l 1
 -0.5 0 l 1
EndSplineSet
EndChar

StartChar: J
Encoding: 74 74 29
Width: 286
Flags: MW
HStem: 599.68 20G
VStem: 110.5 79.5498<83.5571 100.877 100.877 612.18 612.18 619.68>
LayerCount: 2
Fore
SplineSet
3.8916015625 -143.266601562 m 1
 2.421875 -134.884765625 l 1
 -1.0185546875 -115.254882812 l 1
 -2.1259765625 -108.932617188 l 1
 3.9482421875 -106.861328125 l 2
 91.8193359375 -77.505859375 110.5 -4.7470703125 110.5 50.76171875 c 2
 110.5 612.1796875 l 1
 110.5 619.6796875 l 1
 118 619.6796875 l 1
 182.549804688 619.6796875 l 1
 190.049804688 619.6796875 l 1
 190.049804688 612.1796875 l 1
 190.049804688 100.876953125 l 2
 190.049804688 66.2373046875 188.583984375 37.28515625 185.702148438 12.3623046875 c 0
 177.018554688 -62.5205078125 115.422851562 -109.458984375 12.021484375 -140.755859375 c 2
 3.8916015625 -143.266601562 l 1
EndSplineSet
EndChar

StartChar: K
Encoding: 75 75 30
Width: 482
Flags: MW
HStem: 0 21G<0.5 8 0.5 0.5 8 72.46 72.46 79.96 330.938 334.359 330.938 330.938 334.359 419.909 419.909 436.108> 599.68 20G
VStem: 0.5 79.46
LayerCount: 2
Fore
SplineSet
392.154296875 607.341796875 m 1
 137.852539062 343.206054688 l 1
 425.627929688 12.060546875 l 1
 436.108398438 0 l 1
 419.909179688 0 l 1
 334.359375 0 l 1
 330.9375 0 l 1
 328.694335938 2.5849609375 l 1
 79.9599609375 289.251953125 l 1
 79.9599609375 7.5 l 1
 79.9599609375 0 l 1
 72.4599609375 0 l 1
 8 0 l 1
 0.5 0 l 1
 0.5 7.5 l 1
 0.5 612.1796875 l 1
 0.5 619.6796875 l 1
 8 619.6796875 l 1
 72.4599609375 619.6796875 l 1
 79.9599609375 619.6796875 l 1
 79.9599609375 612.1796875 l 1
 79.9599609375 325.908203125 l 1
 354.116210938 617.318359375 l 1
 356.337890625 619.6796875 l 1
 359.579101562 619.6796875 l 1
 386.689453125 619.6796875 l 1
 404.033203125 619.6796875 l 1
 392.154296875 607.341796875 l 1
EndSplineSet
EndChar

StartChar: L
Encoding: 76 76 31
Width: 448
Flags: MW
HStem: 0 34.8799 599.68 20G
VStem: 0.5 79.46
LayerCount: 2
Fore
SplineSet
406.413085938 34.8798828125 m 1
 404.934570312 26.1298828125 l 1
 401.575195312 6.25 l 1
 400.518554688 0 l 1
 394.1796875 0 l 1
 8 0 l 1
 0.5 0 l 1
 0.5 7.5 l 1
 0.5 612.1796875 l 1
 0.5 619.6796875 l 1
 8 619.6796875 l 1
 72.4599609375 619.6796875 l 1
 79.9599609375 619.6796875 l 1
 79.9599609375 612.1796875 l 1
 79.9599609375 34.8798828125 l 1
 397.5390625 34.8798828125 l 1
 406.413085938 34.8798828125 l 1
EndSplineSet
EndChar

StartChar: M
Encoding: 77 77 32
Width: 627
Flags: MW
HStem: 0 21G<1.01953 8.51953 1.01953 1.01953 8.51953 28.3096 28.3096 35.8096 473.951 481.45 473.951 473.951 481.45 546 546 553.501> 599.68 20G
VStem: 1.01953 34.79 473.95 79.5498
LayerCount: 2
Fore
SplineSet
553.5 612.174804688 m 1
 553.419921875 483.0625 l 1
 553.5 7.322265625 l 1
 553.500976562 0 l 1
 546 0 l 1
 481.450195312 0 l 1
 473.951171875 0 l 1
 473.950195312 7.4990234375 l 1
 473.875976562 503.4375 l 1
 276.328125 17.3271484375 l 1
 269.814453125 1.2998046875 l 1
 262.569335938 17.0087890625 l 1
 35.8095703125 508.661132812 l 1
 35.8095703125 7.5 l 1
 35.8095703125 0 l 1
 28.3095703125 0 l 1
 8.51953125 0 l 1
 1.01953125 0 l 1
 1.01953125 7.5 l 1
 1.01953125 612.1796875 l 1
 1.01953125 619.6796875 l 1
 8.51953125 619.6796875 l 1
 61.189453125 619.6796875 l 1
 65.9970703125 619.6796875 l 1
 68.0048828125 615.310546875 l 1
 290.65234375 130.663085938 l 1
 487.763671875 615.006835938 l 1
 489.665039062 619.6796875 l 1
 494.709960938 619.6796875 l 1
 546 619.6796875 l 1
 553.504882812 619.6796875 l 1
 553.5 612.174804688 l 1
EndSplineSet
EndChar

StartChar: N
Encoding: 78 78 33
Width: 558
Flags: MW
HStem: 0 21G<0.229492 7.72949 0.229492 0.229492 7.72949 27.5303 27.5303 35.0303> 599.68 20G
VStem: 0.229492 34.8008 445.71 34.79
LayerCount: 2
Fore
SplineSet
445.709960938 619.6796875 m 1
 453.209960938 619.6796875 l 1
 473 619.6796875 l 1
 480.5 619.6796875 l 1
 480.5 612.1796875 l 1
 480.5 -1.1904296875 l 1
 480.5 -8.6904296875 l 1
 473 -8.6904296875 l 1
 453.379882812 -8.6904296875 l 1
 449.611328125 -8.6904296875 l 1
 447.361328125 -5.666015625 l 1
 35.0302734375 548.7578125 l 1
 35.0302734375 7.5 l 1
 35.0302734375 0 l 1
 27.5302734375 0 l 1
 7.7294921875 0 l 1
 0.2294921875 0 l 1
 0.2294921875 7.5 l 1
 0.2294921875 612.1796875 l 1
 0.2294921875 619.6796875 l 1
 7.7294921875 619.6796875 l 1
 66.599609375 619.6796875 l 1
 70.3701171875 619.6796875 l 1
 72.619140625 616.654296875 l 1
 445.709960938 114.741210938 l 1
 445.709960938 612.1796875 l 1
 445.709960938 619.6796875 l 1
EndSplineSet
EndChar

StartChar: O
Encoding: 79 79 34
Width: 555
Flags: MW
HStem: -16.0596 36.0791 598.15 35.3691
VStem: 0.240234 80.71 433.45 80.7002
LayerCount: 2
Fore
SplineSet
0.240234375 309.5703125 m 0
 0.240234375 432.064453125 49.8828125 633.51953125 257.209960938 633.51953125 c 0
 436.858398438 633.51953125 514.16015625 488.94921875 514.150390625 309.5703125 c 0
 514.150390625 198.469726562 478.377929688 -16.0595703125 249.650390625 -16.0595703125 c 0
 61.6650390625 -16.0595703125 0.240234375 164.448242188 0.240234375 309.5703125 c 0
255 598.150390625 m 0
 137.763671875 598.150390625 80.9501953125 446.901367188 80.9501953125 306.96484375 c 0
 80.9501953125 155.01953125 149.447265625 20.01953125 267.83984375 20.01953125 c 0
 354.706054688 20.01953125 433.450195312 153.129882812 433.450195312 306.96484375 c 0
 433.450195312 465.676757812 368.463867188 598.150390625 255 598.150390625 c 0
EndSplineSet
EndChar

StartChar: P
Encoding: 80 80 35
Width: 455
Flags: MW
HStem: 0 21G<0.5 8 0.5 0.5 8 72.46 72.46 79.96> 213.86 34.6992 584.39 35.29
VStem: 0.5 79.4902
LayerCount: 2
Fore
SplineSet
146.990234375 584.389648438 m 2
 79.990234375 584.389648438 l 1
 79.990234375 248.559570312 l 1
 113.30078125 248.559570312 l 2
 286.758789062 248.559570312 328.130859375 343.438476562 328.130859375 416.586914062 c 0
 328.130859375 494.13671875 266.640625 584.389648438 146.990234375 584.389648438 c 2
141.400390625 619.6796875 m 2
 227.885742188 619.6796875 329.59765625 614.391601562 388.859375 502.908203125 c 0
 425.450195312 434.059570312 409.721679688 343.392578125 368.87109375 295.263671875 c 0
 302.901367188 217.568359375 236.688476562 213.860351562 104.48046875 213.860351562 c 2
 79.9599609375 213.860351562 l 1
 79.9599609375 7.5 l 1
 79.9599609375 0 l 1
 72.4599609375 0 l 1
 8 0 l 1
 0.5 0 l 1
 0.5 7.5 l 1
 0.5 612.1796875 l 1
 0.5 619.6796875 l 1
 8 619.6796875 l 1
 141.400390625 619.6796875 l 2
EndSplineSet
EndChar

StartChar: Q
Encoding: 81 81 36
Width: 565
Flags: MW
HStem: -141.12 160.38 598.17 35.3496
VStem: 0.5 80.75<239.848 371.118> 434.08 80.7695
LayerCount: 2
Fore
SplineSet
255.469726562 598.169921875 m 0
 138.100585938 598.169921875 81.25 447.255859375 81.25 307.208984375 c 0
 81.25 155.094726562 149.837890625 19.259765625 268.319335938 19.259765625 c 0
 355.233398438 19.259765625 434.080078125 153.21484375 434.080078125 307.208984375 c 0
 434.080078125 466.05078125 369.05859375 598.169921875 255.469726562 598.169921875 c 0
514.849609375 309.84375 m 0
 514.849609375 208.7578125 485.1875 22.14453125 310.428710938 -10.9248046875 c 1
 350.854492188 -75.361328125 400.533203125 -91.6064453125 489.26953125 -112.631835938 c 2
 496.435546875 -114.330078125 l 1
 494.868164062 -121.525390625 l 2
 493.663085938 -127.057617188 491.852539062 -135.237304688 491.852539062 -135.240234375 c 2
 490.55078125 -141.120117188 l 1
 484.529296875 -141.120117188 l 2
 372.342773438 -141.120117188 275.485351562 -117.529296875 230.596679688 -15.767578125 c 1
 56.9443359375 -4.0625 0.5 169.907226562 0.5 309.788085938 c 0
 0.5 432.448242188 50.166015625 633.51953125 257.719726562 633.51953125 c 0
 437.434570312 633.51953125 514.849609375 489.357421875 514.849609375 309.84375 c 0
EndSplineSet
EndChar

StartChar: R
Encoding: 82 82 37
Width: 512
Flags: MW
HStem: 0 21G<0.5 8 0.5 0.5 8 72.46 72.46 79.96 373.34 377.311 373.34 373.34 377.311 455.971 455.971 469.979> 310.777 27.1924 584.34 35.3301
VStem: 0.5 79.46
LayerCount: 2
Fore
SplineSet
79.970703125 584.33984375 m 1
 79.970703125 337.969726562 l 1
 113.350585938 337.969726562 l 2
 261.55859375 337.969726562 310 385.166992188 310 460.985351562 c 0
 310 536.403320312 251.048828125 584.33984375 147 584.33984375 c 2
 79.970703125 584.33984375 l 1
386.622070312 499.306640625 m 0
 415.421875 390.241210938 311.583007812 332.053710938 253.322265625 317.5546875 c 1
 462.212890625 11.3828125 l 1
 469.978515625 0 l 1
 455.970703125 0 l 1
 377.310546875 0 l 1
 373.33984375 0 l 1
 371.107421875 3.2841796875 l 1
 161.161132812 312.1875 l 1
 134.444335938 310.896484375 96.2578125 310.796875 79.9599609375 310.77734375 c 1
 79.9599609375 7.5 l 1
 79.9599609375 0 l 1
 72.4599609375 0 l 1
 8 0 l 1
 0.5 0 l 1
 0.5 7.5 l 1
 0.5 612.169921875 l 1
 0.5 619.669921875 l 1
 8 619.669921875 l 1
 141.400390625 619.669921875 l 2
 226.630859375 619.669921875 340.233398438 623.522460938 380.806640625 517.262695312 c 0
 383.143554688 511.153320312 385.07421875 505.166992188 386.622070312 499.306640625 c 0
EndSplineSet
EndChar

StartChar: S
Encoding: 83 83 38
Width: 483
Flags: MW
HStem: -16.0703 39.8799 598.63 34.8896
VStem: 22.7793 68.3008 369.79 63.5596 371.55 27.7988
LayerCount: 2
Fore
SplineSet
226.198242188 356.381835938 m 0xe8
 357.7421875 321.631835938 433.349609375 282.915039062 433.349609375 162.765625 c 0
 433.349609375 55.4951171875 332.869140625 -16.0703125 226.819335938 -16.0703125 c 0
 128.669921875 -16.0703125 57.5048828125 39.408203125 16.134765625 111.0390625 c 2
 15.5390625 112.071289062 l 1
 15.2919921875 113.237304688 l 2
 2.58203125 173.298828125 0.5166015625 224.075195312 0.5068359375 224.317382812 c 2
 0.2041015625 231.569335938 l 1
 7.4423828125 232.109375 l 1
 7.4423828125 232.109375 15.517578125 232.708984375 20.4365234375 233.1328125 c 2
 27.77734375 233.764648438 l 1
 28.5400390625 226.435546875 l 2
 29.21875 219.903320312 30.990234375 203.264648438 32.7177734375 194.931640625 c 0
 52.6513671875 100.655273438 150.307617188 23.8095703125 224.919921875 23.8095703125 c 0
 282.646484375 23.8095703125 369.790039062 69.2509765625 369.790039062 149.15625 c 0xf0
 369.790039062 220.93359375 316.915039062 253.40234375 208.481445312 280.868164062 c 0
 68.9169921875 316.3046875 22.779296875 383.149414062 22.779296875 481.6953125 c 0
 22.779296875 565.895507812 109.393554688 633.51953125 221.819335938 633.51953125 c 0
 302.821289062 633.51953125 336.587890625 614.96484375 382.25 575.845703125 c 2
 383.604492188 574.685546875 l 1
 384.291992188 573.038085938 l 2
 400.779296875 533.522460938 399.422851562 460.166992188 399.419921875 459.87890625 c 2
 399.348632812 453.318359375 l 1
 392.836914062 452.516601562 l 2
 392.833007812 452.515625 384.483398438 451.485351562 379.290039062 450.872070312 c 2
 371.549804688 449.958007812 l 1
 370.93359375 457.727539062 l 2
 370.612304688 461.778320312 369.580078125 471.439453125 368.23828125 479.981445312 c 0
 352.216796875 583.393554688 263.26953125 598.629882812 226.309570312 598.629882812 c 0
 158.08203125 598.629882812 91.080078125 565.2890625 91.080078125 493.26171875 c 0
 91.080078125 433.1171875 126.036132812 382.796875 226.198242188 356.381835938 c 0xe8
EndSplineSet
EndChar

StartChar: T
Encoding: 84 84 39
Width: 565
Flags: MW
HStem: 0 21G<219.399 226.899 219.399 219.399 226.899 291.37 291.37 298.87> 584.89 34.79
VStem: 219.399 79.4707
LayerCount: 2
Fore
SplineSet
518.6796875 619.6796875 m 1
 518.6796875 612.1796875 l 1
 518.6796875 592.389648438 l 1
 518.6796875 584.889648438 l 1
 511.1796875 584.889648438 l 1
 298.870117188 584.889648438 l 1
 298.870117188 7.5 l 1
 298.870117188 0 l 1
 291.370117188 0 l 1
 226.899414062 0 l 1
 219.399414062 0 l 1
 219.399414062 7.5 l 1
 219.399414062 584.889648438 l 1
 7 584.889648438 l 1
 -0.5 584.889648438 l 1
 -0.5 592.389648438 l 1
 -0.5 612.1796875 l 1
 -0.5 619.6796875 l 1
 7 619.6796875 l 1
 511.1796875 619.6796875 l 1
 518.6796875 619.6796875 l 1
EndSplineSet
EndChar

StartChar: U
Encoding: 85 85 40
Width: 481
Flags: MW
HStem: -16.0703 32.3799 599.68 21G
VStem: 0.410156 79.5498<111.729 171.601 171.601 173.319> 379.69 34.7998
LayerCount: 2
Fore
SplineSet
379.690429688 619.6796875 m 1
 387.200195312 619.6796875 l 1
 406.990234375 619.6796875 l 1
 414.490234375 619.6796875 l 1
 414.490234375 612.1796875 l 1
 414.490234375 175.505859375 l 2
 414.490234375 50.8818359375 353.486328125 -16.0703125 211.969726562 -16.0703125 c 0
 89.779296875 -16.0703125 0.41015625 33.21875 0.41015625 173.319335938 c 2
 0.5 612.171875 l 1
 0.501953125 619.669921875 l 1
 8 619.669921875 l 1
 72.4599609375 619.669921875 l 1
 79.9599609375 619.669921875 l 1
 79.9599609375 612.169921875 l 1
 79.9599609375 171.600585938 l 2
 79.9599609375 51.8583984375 149.293945312 16.3095703125 223.0703125 16.3095703125 c 0
 291.619140625 16.3095703125 379.690429688 42.2822265625 379.690429688 176.048828125 c 2
 379.690429688 612.1796875 l 1
 379.690429688 619.6796875 l 1
EndSplineSet
EndChar

StartChar: V
Encoding: 86 86 41
Width: 511
Flags: MW
HStem: 599.68 20G
LayerCount: 2
Fore
SplineSet
432.284179688 619.6796875 m 1
 437.959960938 619.6796875 l 1
 459.140625 619.6796875 l 1
 469.06640625 619.6796875 l 1
 466.35546875 610.353515625 l 1
 285.875 -10.6181640625 l 1
 284.327148438 -16.0703125 l 1
 278.66015625 -16.0703125 l 1
 236.23046875 -16.0703125 l 1
 230.930664062 -16.0703125 l 1
 229.161132812 -11.0751953125 l 1
 3.9306640625 609.907226562 l 1
 0.3857421875 619.6796875 l 1
 11 619.6796875 l 1
 80.0302734375 619.6796875 l 1
 85.337890625 619.6796875 l 1
 87.103515625 614.673828125 l 1
 278.037109375 73.2685546875 l 1
 430.7421875 614.216796875 l 1
 432.284179688 619.6796875 l 1
EndSplineSet
EndChar

StartChar: W
Encoding: 87 87 42
Width: 758
Flags: MW
HStem: 599.68 20G
LayerCount: 2
Fore
SplineSet
671.455078125 619.6796875 m 1
 677.129882812 619.6796875 l 1
 698.209960938 619.6796875 l 1
 708.135742188 619.6796875 l 1
 705.424804688 610.353515625 l 1
 524.955078125 -10.6181640625 l 1
 523.407226562 -16.0703125 l 1
 517.740234375 -16.0703125 l 1
 475.400390625 -16.0703125 l 1
 470.059570312 -16.0703125 l 1
 468.3125 -11.0234375 l 1
 366.978515625 281.733398438 l 1
 285.88671875 -10.486328125 l 1
 284.362304688 -15.98046875 l 1
 278.66015625 -15.98046875 l 1
 236.23046875 -15.98046875 l 1
 230.930664062 -15.98046875 l 1
 229.161132812 -10.9853515625 l 1
 3.9306640625 609.907226562 l 1
 0.3857421875 619.6796875 l 1
 11 619.6796875 l 1
 80.1103515625 619.6796875 l 1
 85.4189453125 619.6796875 l 1
 87.18359375 614.672851562 l 1
 277.9375 73.525390625 l 1
 346.694335938 323.4609375 l 1
 242.344726562 609.610351562 l 1
 238.672851562 619.6796875 l 1
 249.390625 619.6796875 l 1
 322.110351562 619.6796875 l 1
 327.606445312 619.6796875 l 1
 329.26171875 614.438476562 l 1
 384.323242188 440.086914062 l 1
 428.451171875 614.024414062 l 1
 429.885742188 619.6796875 l 1
 435.720703125 619.6796875 l 1
 457.580078125 619.6796875 l 1
 467.303710938 619.6796875 l 1
 464.833984375 610.275390625 l 1
 404.669921875 381.124023438 l 1
 517.004882812 72.8583984375 l 1
 669.912109375 614.21875 l 1
 671.455078125 619.6796875 l 1
EndSplineSet
EndChar

StartChar: X
Encoding: 88 88 43
Width: 506
Flags: MW
HStem: 0 21G<24.4238 37.5205 24.4238 24.4238 37.5205 61.4404 61.4404 65.7852 380.806 385.05 380.806 380.806 385.05 460.25 460.25 473.502> 599.68 21G
LayerCount: 2
Fore
SplineSet
393.194335938 619.6796875 m 1
 397.530273438 619.6796875 l 1
 421.360351562 619.6796875 l 1
 434.45703125 619.6796875 l 1
 427.829101562 608.651367188 l 1
 265.401367188 338.36328125 l 1
 466.6796875 11.0927734375 l 1
 473.501953125 0 l 1
 460.25 0 l 1
 385.049804688 0 l 1
 380.805664062 0 l 1
 378.620117188 3.6376953125 l 1
 219.659179688 268.276367188 l 1
 67.9462890625 3.7685546875 l 1
 65.78515625 0 l 1
 61.4404296875 0 l 1
 37.5205078125 0 l 1
 24.423828125 0 l 1
 31.0517578125 11.0283203125 l 1
 200.548828125 293.079101562 l 1
 6.5703125 608.416992188 l 1
 -0.2529296875 619.509765625 l 1
 13 619.509765625 l 1
 88.2001953125 619.509765625 l 1
 92.4443359375 619.509765625 l 1
 94.6298828125 615.872070312 l 1
 245.953125 363.943359375 l 1
 391.030273438 615.921875 l 1
 393.194335938 619.6796875 l 1
EndSplineSet
EndChar

StartChar: Y
Encoding: 89 89 44
Width: 530
Flags: MW
HStem: 0 21G<212 219.5 212 212 219.5 284.05 284.05 291.55> 599.68 20G
VStem: 212 79.5498<0 7.5 7.5 247.877 247.877 247.877>
LayerCount: 2
Fore
SplineSet
466.102539062 619.6796875 m 1
 470.469726562 619.6796875 l 1
 493.279296875 619.6796875 l 1
 506.15625 619.6796875 l 1
 499.802734375 608.747070312 l 1
 291.549804688 250.370117188 l 1
 291.549804688 7.5 l 1
 291.549804688 0 l 1
 284.049804688 0 l 1
 219.5 0 l 1
 212 0 l 1
 212 7.5 l 1
 212 247.876953125 l 1
 5.4521484375 608.7890625 l 1
 -0.7802734375 619.6796875 l 1
 12 619.6796875 l 1
 85.9296875 619.6796875 l 1
 90.3310546875 619.6796875 l 1
 92.4775390625 615.836914062 l 1
 276.702148438 285.958007812 l 1
 463.947265625 615.881835938 l 1
 466.102539062 619.6796875 l 1
EndSplineSet
EndChar

StartChar: Z
Encoding: 90 90 45
Width: 485
Flags: MW
HStem: 0 34.7998<81.2617 425.34 81.2617 425.34 425.34 432.84> 584.89 34.79
LayerCount: 2
Fore
SplineSet
432.83984375 34.7998046875 m 1
 432.83984375 27.2998046875 l 1
 432.83984375 7.5 l 1
 432.83984375 0 l 1
 425.33984375 0 l 1
 -7.3203125 0 l 1
 -14.8203125 0 l 1
 -14.8203125 7.5 l 1
 -14.8203125 26.623046875 l 1
 -14.8203125 28.61328125 l 1
 -13.78515625 30.3291015625 l 1
 320.818359375 584.889648438 l 1
 8 584.889648438 l 1
 0.5 584.889648438 l 1
 0.5 592.389648438 l 1
 0.5 612.1796875 l 1
 0.5 619.6796875 l 1
 8 619.6796875 l 1
 420.4296875 619.6796875 l 1
 433.53125 619.6796875 l 1
 426.897460938 608.6640625 l 1
 81.26171875 34.7998046875 l 1
 425.33984375 34.7998046875 l 1
 432.83984375 34.7998046875 l 1
EndSplineSet
EndChar

StartChar: a
Encoding: 97 97 46
Width: 412
Flags: MW
HStem: 0 21G<252.689 260.189 252.689 252.689 260.189 324.74 324.74 332.247> 203.807 33.6709
VStem: 252.52 79.6299
LayerCount: 2
Fore
SplineSet
22.130859375 359.279296875 m 1
 25.4794921875 366.345703125 l 2
 56.259765625 431.3046875 163.384765625 456.7734375 261.354492188 414.435546875 c 0
 332.786132812 383.573242188 332.194335938 333.205078125 332.149414062 331.723632812 c 2
 332.149414062 101.686523438 l 1
 332.240234375 7.2451171875 l 1
 332.247070312 0 l 1
 324.740234375 0 l 1
 260.189453125 0 l 1
 252.689453125 0 l 1
 252.689453125 7.5 l 1
 252.689453125 46.4091796875 l 1
 205.708007812 -6.4326171875 168.365234375 -15.830078125 120.469726562 -15.830078125 c 0
 97.4921875 -15.830078125 77.1455078125 -11.4091796875 59.97265625 -3.48828125 c 0
 4.8681640625 21.0498046875 -15.59375 79.68359375 11.435546875 135.556640625 c 0
 46.44921875 207.829101562 144.404296875 236.155273438 252.51953125 237.477539062 c 1
 252.51953125 308.212890625 l 2
 252.51953125 338.435546875 245.744140625 368.676757812 215.041015625 385.303710938 c 0
 212.706054688 386.568359375 209.6328125 388.032226562 206.014648438 389.5078125 c 0
 174.618164062 402.310546875 109.674804688 414.389648438 79.9169921875 345.82421875 c 2
 77.12890625 339.3984375 l 1
 70.3701171875 341.841796875 l 1
 29.669921875 356.553710938 l 1
 22.130859375 359.279296875 l 1
81.708984375 60.4365234375 m 0
 88.76171875 28.900390625 104.309570312 13.841796875 140.442382812 17.9521484375 c 0
 257.307617188 31.2470703125 254.005859375 162.263671875 252.764648438 203.806640625 c 1
 225.154296875 204.053710938 180.640625 204.360351562 127.000976562 182.044921875 c 0
 76.5380859375 161.05078125 73.2900390625 97.890625 81.708984375 60.4365234375 c 0
EndSplineSet
EndChar

StartChar: b
Encoding: 98 98 47
Width: 369
Flags: MW
HStem: -16.0703 50.1006 0 21G<0.5 8 0.5 0.5 8 72.4707 72.4707 79.9707> 382.05 51.71 599.68 20G
VStem: 0.5 79.4707<0 7.5 7.5 41.5566 378.785 612.18 612.18 619.68> 249.48 79.4102
LayerCount: 2
Fore
SplineSet
249.48046875 202.23046875 m 0xbc
 249.48046875 313.6484375 222.56640625 382.049804688 168.090820312 382.049804688 c 0
 137.854492188 382.049804688 104.08984375 361.375 79.98046875 326.4453125 c 1
 79.98046875 100.557617188 l 1
 101.810546875 63.0439453125 131.303710938 34.0302734375 164.73046875 34.0302734375 c 0
 216.333007812 34.0302734375 249.48046875 110.939453125 249.48046875 202.23046875 c 0xbc
79.970703125 378.78515625 m 1
 111.275390625 410.319335938 150.477539062 434.07421875 194.926757812 433.759765625 c 0
 266.400390625 433.20703125 328.900390625 364.454101562 328.890625 202.181640625 c 0
 328.890625 96.6923828125 303.619140625 -16.0703125 189.270507812 -16.0703125 c 0xbc
 136.609375 -16.0703125 101.049804688 13.3447265625 79.970703125 41.556640625 c 1
 79.970703125 7.5 l 1
 79.970703125 0 l 1
 72.470703125 0 l 1
 8 0 l 1
 0.5 0 l 1x7c
 0.5 7.5 l 1
 0.5 612.1796875 l 1
 0.5 619.6796875 l 1
 8 619.6796875 l 1
 72.470703125 619.6796875 l 1
 79.970703125 619.6796875 l 1
 79.970703125 612.1796875 l 1
 79.970703125 378.78515625 l 1
EndSplineSet
EndChar

StartChar: c
Encoding: 99 99 48
Width: 443
Flags: MW
HStem: -16.0703 34.2803 402.08 33.8604
VStem: -0.5 82.6309
LayerCount: 2
Fore
SplineSet
393.279296875 137.830078125 m 1
 392.38671875 129.139648438 l 2
 383.850585938 50.021484375 321.146484375 -16.0703125 219.510742188 -16.0703125 c 0
 96.3505859375 -16.0703125 -0.5 85.818359375 -0.5 217.721679688 c 0
 -0.5 409.548828125 162.358398438 435.940429688 224.440429688 435.940429688 c 0
 276.614257812 435.940429688 348.631835938 421.514648438 383.067382812 362.142578125 c 2
 386.846679688 355.627929688 l 1
 380.315429688 351.876953125 l 1
 345.375976562 331.806640625 l 1
 339.115234375 328.209960938 l 1
 335.284179688 334.329101562 l 2
 304.40625 383.641601562 274.215820312 402.080078125 226.340820312 402.080078125 c 0
 116.943359375 402.080078125 82.130859375 289.700195312 82.130859375 217.67578125 c 0
 82.130859375 123.108398438 122.518554688 18.2099609375 218.990234375 18.2099609375 c 0
 284.88671875 18.2099609375 314.8828125 46.53125 333.44921875 76.59765625 c 0
 340.141601562 87.3046875 350.9375 112.631835938 355.715820312 132.116210938 c 2
 357.1171875 137.830078125 l 1
 363 137.830078125 l 1
 385.893554688 137.830078125 l 1
 393.279296875 137.830078125 l 1
EndSplineSet
EndChar

StartChar: d
Encoding: 100 100 49
Width: 372
Flags: MW
HStem: -16.0703 50.1104 0 21G<249.01 256.51 249.01 249.01 256.51 320.98 320.98 328.48> 382.06 51.7002 599.68 20G
VStem: 0 79.5<156.59 257.951 156.59 283.321> 249.02 79.4609
LayerCount: 2
Fore
SplineSet
164.25 34.0400390625 m 0xbc
 197.89453125 34.0400390625 227.887695312 64.2890625 249.009765625 100.584960938 c 1
 249.009765625 326.444335938 l 1
 224.0625 362.571289062 190.888671875 382.059570312 160.889648438 382.059570312 c 0
 106.41015625 382.059570312 79.5 313.662109375 79.5 202.240234375 c 0
 79.5 110.939453125 112.647460938 34.0400390625 164.25 34.0400390625 c 0xbc
249.01953125 619.6796875 m 1
 256.51953125 619.6796875 l 1
 320.98046875 619.6796875 l 1
 328.48046875 619.6796875 l 1
 328.48046875 612.1796875 l 1
 328.48046875 7.5 l 1
 328.48046875 0 l 1
 320.98046875 0 l 1
 256.509765625 0 l 1
 249.009765625 0 l 1x7c
 249.009765625 7.5 l 1
 249.009765625 41.5576171875 l 1
 227.055664062 12.1787109375 191.98828125 -16.0703125 139.620117188 -16.0703125 c 0
 25.359375 -16.0703125 0 96.7763671875 0 202.181640625 c 0
 0 364.459960938 62.5966796875 433.20703125 134.052734375 433.759765625 c 0
 178.720703125 434.16015625 218.766601562 409.213867188 249.01953125 378.76171875 c 1
 249.01953125 612.1796875 l 1
 249.01953125 619.6796875 l 1
EndSplineSet
EndChar

StartChar: e
Encoding: 101 101 50
Width: 448
Flags: MW
HStem: -16.0703 33.9443 237.428 43.6621 408 27.9502<157.898 219.786 157.898 221.366>
VStem: 327.197 37.0576
LayerCount: 2
Fore
SplineSet
286.21484375 281.08984375 m 1
 281.981445312 345.607421875 258.732421875 408 184 408 c 0
 111.522460938 408 81.4521484375 339.584960938 76.341796875 281.08984375 c 1
 286.21484375 281.08984375 l 1
328.375976562 164.875 m 1
 334.559570312 164.875 l 1
 359.029296875 164.875 l 1
 367.317382812 164.875 l 1
 366.4921875 156.893554688 l 2
 365.9453125 151.607421875 365.141601562 146.54296875 364.254882812 141.615234375 c 0
 347.78125 53.6171875 289.5 -16.0703125 195.91015625 -16.0703125 c 0
 138.521484375 -16.0703125 87.5576171875 -6.1591796875 42.5322265625 57.3837890625 c 0
 -10.537109375 132.381835938 -8.498046875 252.692382812 18.0927734375 313.563476562 c 0
 59.6201171875 408.591796875 131.907226562 435.950195312 183.889648438 435.950195312 c 0
 255.682617188 435.950195312 365.9296875 406.975585938 365.9296875 244.686523438 c 2
 365.9296875 237.427734375 l 1
 358.4296875 237.427734375 l 1
 75.666015625 237.427734375 l 1
 74.1865234375 138.34765625 101.002929688 17.8740234375 196.76953125 17.8740234375 c 0
 259.678710938 17.8740234375 307.712890625 78.9033203125 324.067382812 144.080078125 c 0
 324.315429688 145.0859375 326.013671875 153.102539062 327.197265625 159 c 2
 328.375976562 164.875 l 1
EndSplineSet
EndChar

StartChar: f
Encoding: 102 102 51
Width: 282
Flags: MW
HStem: 0 21G<68.4717 75.9697 68.4717 68.4717 75.9697 140.38 140.38 147.88> 398.54 34.8701 598.4 35.1191
VStem: 68.4697 79.4102
LayerCount: 2
Fore
SplineSet
273.133789062 547.272460938 m 1
 268.981445312 552.145507812 l 2
 236.620117188 590.120117188 220.791015625 598.400390625 192.409179688 598.400390625 c 0
 154.491210938 598.400390625 147.879882812 558.9375 147.879882812 501.669921875 c 2
 147.879882812 433.41015625 l 1
 223.189453125 433.41015625 l 1
 230.689453125 433.41015625 l 1
 230.689453125 425.91015625 l 1
 230.689453125 406.040039062 l 1
 230.689453125 398.540039062 l 1
 223.189453125 398.540039062 l 1
 147.879882812 398.540039062 l 1
 147.879882812 7.5 l 1
 147.879882812 0 l 1
 140.379882812 0 l 1
 75.9697265625 0 l 1
 68.4716796875 0 l 1
 68.4697265625 7.498046875 l 1
 68.3818359375 398.540039062 l 1
 7 398.540039062 l 1
 -0.5 398.540039062 l 1
 -0.5 406.040039062 l 1
 -0.5 425.91015625 l 1
 -0.5 433.41015625 l 1
 7 433.41015625 l 1
 68.3798828125 433.41015625 l 1
 68.3798828125 501.669921875 l 2
 68.3798828125 585.311523438 105.290039062 633.51953125 189.739257812 633.51953125 c 0
 259.145507812 633.51953125 299.092773438 606.969726562 314.892578125 581.639648438 c 2
 318.900390625 575.21484375 l 1
 312.4375 571.268554688 l 1
 278.59765625 550.608398438 l 1
 273.133789062 547.272460938 l 1
EndSplineSet
EndChar

StartChar: g
Encoding: 103 103 52
Width: 429
Flags: MW
HStem: -200 77.5596 17.8896 70.8135 129.31 34.1309 402 33.9502<150.61 184.921 131.617 199.089>
VStem: -3.5 33.8701 20.4502 76.8506 263.24 76.7803 361.2 34.46
LayerCount: 2
Fore
SplineSet
171.680664062 435.950195312 m 0xf7
 198.162109375 435.950195312 236.073242188 427.272460938 266.508789062 410.532226562 c 1
 297.522460938 447.047851562 329.876953125 467.393554688 365.661132812 464.952148438 c 2
 372.859375 464.4609375 l 1
 372.647460938 457.249023438 l 1
 371.427734375 415.829101562 l 1
 371.223632812 409.087890625 l 1
 364.3125 408.745117188 l 2
 337.532226562 407.415039062 314.91015625 402.591796875 295.806640625 389.836914062 c 1
 310.8046875 376.282226562 340.020507812 342.71875 340.020507812 285.043945312 c 0
 340.020507812 161.653320312 264.611328125 129.309570312 183.419921875 129.309570312 c 0
 144.454101562 129.309570312 106.669921875 136.727539062 83.306640625 148.543945312 c 1
 63.689453125 127.603515625 54.5380859375 112.375 54.498046875 103.889648438 c 0
 54.4658203125 97.1171875 62.076171875 88.703125 102.120117188 88.703125 c 2
 240.3203125 88.703125 l 2
 331.844726562 88.703125 395.66015625 47.283203125 395.66015625 -32.4501953125 c 0
 395.66015625 -142.486328125 280.947265625 -200 190.850585938 -200 c 0
 78.16015625 -200 -3.5 -149.557617188 -3.5 -79.3603515625 c 0xfb
 -3.5 -43.6650390625 13.53515625 -11.8037109375 48.2109375 19.15234375 c 1
 34.384765625 22.5361328125 23.66015625 27.7236328125 15.8515625 34.6787109375 c 0
 -23.3349609375 69.5859375 20.7353515625 132.068359375 54.912109375 167.983398438 c 1
 44.5546875 181.447265625 20.4501953125 219.258789062 20.4501953125 280.116210938 c 0
 20.4501953125 381.036132812 91.5537109375 435.950195312 171.680664062 435.950195312 c 0xf7
263.240234375 279.43359375 m 0
 263.240234375 348.822265625 223.208007812 402 174.970703125 402 c 0
 126.25 402 97.30078125 356.768554688 97.30078125 291.22265625 c 0xf7
 97.30078125 199.166015625 134.118164062 163.440429688 182.690429688 163.440429688 c 0
 251.928710938 163.440429688 263.240234375 226.004882812 263.240234375 279.43359375 c 0
30.3701171875 -60.7998046875 m 0xfb
 30.3701171875 -98.7763671875 75.171875 -122.440429688 192.740234375 -122.440429688 c 0
 277.801757812 -122.440429688 361.19140625 -93.470703125 361.200195312 -40.099609375 c 0
 361.200195312 5.3515625 309.87109375 17.41015625 247.08984375 17.41015625 c 2
 247.08984375 17.41015625 133.948242188 17.8671875 84.1103515625 17.8896484375 c 1
 46.6279296875 -14.6455078125 30.3701171875 -45.978515625 30.3701171875 -60.7998046875 c 0xfb
EndSplineSet
EndChar

StartChar: h
Encoding: 104 104 53
Width: 443
Flags: MW
HStem: 0 21G<0.5 8 0.5 0.5 8 72.46 72.46 79.96 301.642 309.14 301.642 301.642 309.14 373.689 373.689 381.191> 396.66 37.1201 599.68 20G
VStem: 0.5 79.46 301.64 79.5498
LayerCount: 2
Fore
SplineSet
381.19140625 0 m 1
 373.689453125 0 l 1
 309.139648438 0 l 1
 301.641601562 0 l 1
 301.639648438 7.498046875 l 1
 301.549804688 286.53515625 l 2
 301.549804688 351.265625 280.421875 396.66015625 205.4296875 396.66015625 c 0
 140.231445312 396.66015625 79.9599609375 349.685546875 79.9599609375 294.825195312 c 2
 79.9599609375 7.5 l 1
 79.9599609375 0 l 1
 72.4599609375 0 l 1
 8 0 l 1
 0.5 0 l 1
 0.5 7.5 l 1
 0.5 612.1796875 l 1
 0.5 619.6796875 l 1
 8 619.6796875 l 1
 72.4599609375 619.6796875 l 1
 79.9599609375 619.6796875 l 1
 79.9599609375 612.1796875 l 1
 79.9599609375 388.482421875 l 1
 120.326171875 426.79296875 183.930664062 433.780273438 209.8203125 433.780273438 c 0
 282.16796875 433.780273438 381.109375 397.526367188 381.109375 295.087890625 c 2
 381.189453125 7.2509765625 l 1
 381.19140625 0 l 1
EndSplineSet
EndChar

StartChar: i
Encoding: 105 105 54
Width: 163
Flags: MW
HStem: 0 21G<0.5 0.5 0.5 8 8 74.3809 74.3809 81.8809> 413.56 20G 536.36 97.1592
VStem: -7.42969 97.1602 0.5 81.3809
LayerCount: 2
Fore
SplineSet
0.5 0 m 1xe8
 0.5 7.5 l 1
 0.5 426.059570312 l 1
 0.5 433.559570312 l 1
 8 433.559570312 l 1
 74.380859375 433.559570312 l 1
 81.880859375 433.559570312 l 1
 81.880859375 426.059570312 l 1
 81.880859375 7.5 l 1
 81.880859375 0 l 1
 74.380859375 0 l 1
 8 0 l 1
 0.5 0 l 1xe8
41.150390625 536.360351562 m 0
 14.322265625 536.360351562 -7.4296875 558.107421875 -7.4296875 584.940429688 c 0
 -7.4296875 611.76953125 14.318359375 633.51953125 41.150390625 633.51953125 c 0
 67.978515625 633.51953125 89.73046875 611.772460938 89.73046875 584.940429688 c 0xf0
 89.73046875 558.110351562 67.982421875 536.360351562 41.150390625 536.360351562 c 0
EndSplineSet
EndChar

StartChar: j
Encoding: 106 106 55
Width: 286
Flags: MW
HStem: -200 35.4502<48.1519 84.1162 48.1519 112.007> 538.55 94.9697
VStem: 104.99 94.96 112.33 79.7002
LayerCount: 2
Fore
SplineSet
199.950195312 586.040039062 m 0xe0
 199.950195312 559.846679688 178.670898438 538.549804688 152.470703125 538.549804688 c 0
 126.200195312 538.549804688 104.990234375 559.85546875 104.990234375 586.040039062 c 0
 104.990234375 612.221679688 126.189453125 633.51953125 152.470703125 633.51953125 c 0
 178.666015625 633.51953125 199.950195312 612.237304688 199.950195312 586.040039062 c 0xe0
192.030273438 -71.5498046875 m 2xd0
 192.030273438 -154.3046875 160.083984375 -200 63.9306640625 -200 c 0
 -3.8837890625 -200 -58.861328125 -168.1953125 -64.123046875 -121.143554688 c 2
 -64.859375 -114.56640625 l 1
 -58.42578125 -113.017578125 l 1
 -14.0654296875 -102.337890625 l 1
 -7.10546875 -100.663085938 l 1
 -5.107421875 -107.536132812 l 2
 4.0732421875 -139.12109375 31.943359375 -164.549804688 64.3603515625 -164.549804688 c 0
 103.872070312 -164.549804688 112.330078125 -121.163085938 112.330078125 -71.546875 c 2
 112.5 431.3828125 l 1
 112.502929688 438.879882812 l 1
 120 438.879882812 l 1
 184.530273438 438.879882812 l 1
 192.030273438 438.879882812 l 1
 192.030273438 431.379882812 l 1
 192.030273438 -71.5498046875 l 2xd0
EndSplineSet
EndChar

StartChar: k
Encoding: 107 107 56
Width: 388
Flags: MW
HStem: 0 21G<0.59082 8.08984 0.59082 0.59082 8.08984 72.5498 72.5498 80.0498 265.535 268.96 265.535 265.535 268.96 354.59 354.59 370.796> 401.04 20G 599.68 20G
VStem: 0.589844 79.46
LayerCount: 2
Fore
SplineSet
306.85546875 408.575195312 m 1
 144.202148438 257.715820312 l 1
 360.307617188 11.9287109375 l 1
 370.795898438 0 l 1
 354.58984375 0 l 1
 268.959960938 0 l 1
 265.53515625 0 l 1
 263.291992188 2.5888671875 l 1
 84.0732421875 209.4140625 l 1
 80.0498046875 205.58984375 l 1
 80.0498046875 7.5 l 1
 80.0498046875 0 l 1
 72.5498046875 0 l 1
 8.08984375 0 l 1
 0.5908203125 0 l 1
 0.58984375 7.4990234375 l 1
 0.5 612.178710938 l 1
 0.4990234375 619.6796875 l 1
 8 619.6796875 l 1
 72.5498046875 619.6796875 l 1
 80.0498046875 619.6796875 l 1
 80.0498046875 612.1796875 l 1
 80.0498046875 239.662109375 l 1
 271.836914062 419.017578125 l 1
 273.999023438 421.040039062 l 1
 276.959960938 421.040039062 l 1
 301.66015625 421.040039062 l 1
 320.294921875 421.040039062 l 1
 306.85546875 408.575195312 l 1
EndSplineSet
EndChar

StartChar: l
Encoding: 108 108 57
Width: 160
Flags: MW
HStem: 0 21G<0.5 0.5 0.5 8 8 72.4609 72.4609 79.9609> 599.68 20G
VStem: 0.5 79.4609
LayerCount: 2
Fore
SplineSet
0.5 0 m 1
 0.5 7.5 l 1
 0.5 612.1796875 l 1
 0.5 619.6796875 l 1
 8 619.6796875 l 1
 72.4609375 619.6796875 l 1
 79.9609375 619.6796875 l 1
 79.9609375 612.1796875 l 1
 79.9609375 7.5 l 1
 79.9609375 0 l 1
 72.4609375 0 l 1
 8 0 l 1
 0.5 0 l 1
EndSplineSet
EndChar

StartChar: m
Encoding: 109 109 58
Width: 664
Flags: MW
HStem: 0 21G<0.5 8 0.5 0.5 8 72.7891 72.7891 80.2891 279.029 286.529 279.029 279.029 286.529 351.399 351.399 358.899 526.241 533.739 526.241 526.241 533.739 598.529 598.529 606.029> 396.38 39.5703 401.04 20G
VStem: 0.5 79.7891 279.029 79.8701 526.239 79.79
LayerCount: 2
Fore
SplineSet
593.37890625 346.705078125 m 0xdc
 600.329101562 331.383789062 606.029296875 301.422851562 606.029296875 280.782226562 c 2
 606.029296875 7.5 l 1
 606.029296875 0 l 1
 598.529296875 0 l 1
 533.739257812 0 l 1
 526.241210938 0 l 1
 526.239257812 7.498046875 l 1
 526.149414062 279.844726562 l 2
 526.149414062 365.919921875 495.552734375 396.379882812 456.149414062 396.379882812 c 0
 408.040039062 396.379882812 358.899414062 361.510742188 358.899414062 296.666015625 c 2
 358.899414062 7.5 l 1
 358.899414062 0 l 1
 351.399414062 0 l 1
 286.529296875 0 l 1
 279.029296875 0 l 1
 279.029296875 7.5 l 1
 279.029296875 289.83984375 l 2
 279.029296875 355.50390625 245.809570312 396.379882812 182.729492188 396.379882812 c 0xdc
 133.532226562 396.379882812 80.2890625 353.750976562 80.2890625 302.4140625 c 2
 80.2890625 7.5 l 1
 80.2890625 0 l 1
 72.7890625 0 l 1
 8 0 l 1
 0.5 0 l 1
 0.5 7.5 l 1
 0.5 413.540039062 l 1
 0.5 421.040039062 l 1
 8 421.040039062 l 1
 72.7890625 421.040039062 l 1
 80.2890625 421.040039062 l 1xbc
 80.2890625 413.540039062 l 1
 80.2890625 383.970703125 l 1
 116.995117188 418.150390625 157.517578125 435.950195312 198.559570312 435.950195312 c 0
 244.045898438 435.950195312 295.68359375 418.2421875 337.05859375 361.634765625 c 1
 370.770507812 412.189453125 418.256835938 435.950195312 463.6796875 435.950195312 c 0
 508.55078125 435.950195312 566.912109375 405.461914062 593.37890625 346.705078125 c 0xdc
EndSplineSet
EndChar

StartChar: n
Encoding: 110 110 59
Width: 428
Flags: MW
HStem: 0 21G<0.5 8 0.5 0.5 8 72.79 72.79 80.29 279.03 286.53 279.03 279.03 286.53 351.4 351.4 358.9> 398.63 37.3203 401.04 20G
VStem: 0.5 79.79 279.03 79.8701
LayerCount: 2
Fore
SplineSet
198.560546875 435.950195312 m 0xd8
 245.971679688 435.950195312 358.900390625 409.497070312 358.900390625 274.763671875 c 2
 358.900390625 7.5 l 1
 358.900390625 0 l 1
 351.400390625 0 l 1
 286.530273438 0 l 1
 279.030273438 0 l 1
 279.030273438 7.5 l 1
 279.030273438 293.05859375 l 2
 279.030273438 358.76171875 245.903320312 398.629882812 182.73046875 398.629882812 c 0xd8
 133.427734375 398.629882812 80.2900390625 356.920898438 80.2900390625 305.723632812 c 2
 80.2900390625 7.5 l 1
 80.2900390625 0 l 1
 72.7900390625 0 l 1
 8 0 l 1
 0.5 0 l 1
 0.5 7.5 l 1
 0.5 413.540039062 l 1
 0.5 421.040039062 l 1
 8 421.040039062 l 1
 72.7900390625 421.040039062 l 1
 80.2900390625 421.040039062 l 1xb8
 80.2900390625 413.540039062 l 1
 80.2900390625 387.157226562 l 1
 117.430664062 421.123046875 157.844726562 435.950195312 198.560546875 435.950195312 c 0xd8
EndSplineSet
EndChar

StartChar: o
Encoding: 111 111 60
Width: 429
Flags: MW
HStem: -16.0703 34.96 407.28 28.6699
VStem: 0.5 79.7305 311.86 79.2002
LayerCount: 2
Fore
SplineSet
0.5 218.283203125 m 0
 0.5 311.40625 55.6201171875 435.950195312 196.049804688 435.950195312 c 0
 317.551757812 435.950195312 391.060546875 346.24609375 391.060546875 218.283203125 c 0
 391.060546875 122.87109375 346.169921875 -16.0703125 190.98046875 -16.0703125 c 0
 55.43359375 -16.0703125 0.5 110.783203125 0.5 218.283203125 c 0
194.5703125 407.280273438 m 0
 118.473632812 407.280273438 80.23046875 309.427734375 80.23046875 216.6328125 c 0
 80.23046875 115.715820312 125.3515625 18.8896484375 201.990234375 18.8896484375 c 0
 257.36328125 18.8896484375 311.860351562 114.586914062 311.860351562 216.6328125 c 0
 311.860351562 321.703125 268.303710938 407.280273438 194.5703125 407.280273438 c 0
EndSplineSet
EndChar

StartChar: p
Encoding: 112 112 61
Width: 414
Flags: MW
HStem: -200 21G<0.5 8 0.5 0.5 8 71.0605 71.0605 78.5605> -4.00977 47.1299 385.04 50.9102 401.04 20G
VStem: 0.5 78.0801 289.58 78.6602
LayerCount: 2
Fore
SplineSet
176.310546875 43.1201171875 m 0xec
 224.916015625 43.1201171875 289.580078125 63.203125 289.580078125 201.759765625 c 0
 289.580078125 290.353515625 266.053710938 385.040039062 179.810546875 385.040039062 c 0
 123.741210938 385.040039062 103.725585938 373.083984375 78.560546875 348.227539062 c 1
 78.580078125 83.5810546875 l 1
 100.733398438 56.3193359375 131.544921875 43.1201171875 176.310546875 43.1201171875 c 0xec
78.560546875 397.407226562 m 1
 110.00390625 426.122070312 146.34375 435.950195312 180.669921875 435.950195312 c 0xec
 275.126953125 435.950195312 368.240234375 373.04296875 368.240234375 201.725585938 c 0
 368.240234375 67.6591796875 266.953125 -4.009765625 177.719726562 -4.009765625 c 0
 133.635742188 -4.009765625 102.424804688 7.86328125 78.560546875 30.9287109375 c 1
 78.560546875 -192.5 l 1
 78.560546875 -200 l 1
 71.060546875 -200 l 1
 8 -200 l 1
 0.5 -200 l 1
 0.5 -192.5 l 1
 0.5 413.540039062 l 1
 0.5 421.040039062 l 1
 8 421.040039062 l 1
 71.060546875 421.040039062 l 1
 78.560546875 421.040039062 l 1xdc
 78.560546875 413.540039062 l 1
 78.560546875 397.407226562 l 1
EndSplineSet
EndChar

StartChar: q
Encoding: 113 113 62
Width: 432
Flags: MW
HStem: -200 21G<290.1 297.6 290.1 290.1 297.6 360.74 360.74 368.24> -4.00977 47.1299 385.04 50.9102 401.04 20G
VStem: 0.5 78.6494 290.149 78.0908
LayerCount: 2
Fore
SplineSet
290.169921875 348.227539062 m 1xec
 264.170898438 373.908203125 244.727539062 385.040039062 188.919921875 385.040039062 c 0
 102.674804688 385.040039062 79.1494140625 290.354492188 79.1494140625 201.759765625 c 0
 79.1494140625 63.2021484375 143.813476562 43.1201171875 192.419921875 43.1201171875 c 0
 237.541992188 43.1201171875 268.734375 57.220703125 290.149414062 83.580078125 c 1
 290.169921875 348.227539062 l 1xec
290.189453125 421.040039062 m 1xdc
 297.689453125 421.040039062 l 1
 360.740234375 421.040039062 l 1
 368.240234375 421.040039062 l 1xdc
 368.240234375 413.540039062 l 1
 368.240234375 -192.5 l 1
 368.240234375 -200 l 1
 360.740234375 -200 l 1
 297.599609375 -200 l 1
 290.099609375 -200 l 1
 290.099609375 -192.5 l 1
 290.099609375 30.90625 l 1
 266.376953125 7.6455078125 234.881835938 -4.009765625 191.01953125 -4.009765625 c 0
 101.787109375 -4.009765625 0.5 67.658203125 0.5 201.725585938 c 0
 0.5 373.04296875 93.6220703125 435.950195312 188.080078125 435.950195312 c 0xec
 222.611328125 435.950195312 259.889648438 425.078125 290.189453125 397.407226562 c 1
 290.189453125 413.540039062 l 1
 290.189453125 421.040039062 l 1xdc
EndSplineSet
EndChar

StartChar: r
Encoding: 114 114 63
Width: 287
Flags: MW
HStem: 0 21G<0.5 8 0.5 0.5 8 72.9102 72.9102 80.4102> 403.96 20G
VStem: 0.5 79.9102
LayerCount: 2
Fore
SplineSet
259.344726562 426.981445312 m 1
 258.010742188 420.604492188 l 1
 251.000976562 388.25 l 1
 249.506835938 381.3515625 l 1
 242.3203125 382.610351562 l 2
 153.157226562 398.227539062 123.493164062 359.170898438 80.41015625 267.11328125 c 1
 80.41015625 7.5 l 1
 80.41015625 0 l 1
 72.91015625 0 l 1
 8 0 l 1
 0.5 0 l 1
 0.5 7.5 l 1
 0.5 416.459960938 l 1
 0.5 423.959960938 l 1
 8 423.959960938 l 1
 72.91015625 423.959960938 l 1
 80.41015625 423.959960938 l 1
 80.41015625 416.459960938 l 1
 80.41015625 342.063476562 l 1
 120.172851562 414.119140625 188.544921875 452.546875 253.216796875 429.193359375 c 2
 259.344726562 426.981445312 l 1
EndSplineSet
EndChar

StartChar: s
Encoding: 115 115 64
Width: 341
Flags: MW
HStem: -16.0703 34.8799 400.97 34.9805
VStem: 14.4697 56.4307 240.91 54.0098
LayerCount: 2
Fore
SplineSet
157.82421875 257.995117188 m 0
 246.6640625 231.361328125 294.919921875 185.265625 294.919921875 104.966796875 c 0
 294.919921875 23.4755859375 225.555664062 -16.0703125 153.870117188 -16.0703125 c 0
 87.01953125 -16.0703125 38.35546875 21.748046875 10.357421875 70.462890625 c 2
 9.76953125 71.486328125 l 1
 9.5244140625 72.6396484375 l 2
 0.90234375 113.174804688 -0.4833984375 147.333984375 -0.4931640625 147.573242188 c 2
 -0.794921875 154.728515625 l 1
 6.337890625 155.360351562 l 1
 6.337890625 155.360351562 15.1552734375 156.140625 19.7109375 156.567382812 c 2
 27.078125 157.256835938 l 1
 27.8671875 149.900390625 l 2
 28.6484375 142.618164062 29.8916015625 129.502929688 30.185546875 127.240234375 c 0
 36.6396484375 78.2744140625 90.560546875 18.8095703125 152.580078125 18.8095703125 c 0
 185.763671875 18.8095703125 240.91015625 40.2734375 240.91015625 102.163085938 c 0
 240.91015625 147.885742188 209.172851562 162.041992188 135.219726562 185.115234375 c 0
 41.970703125 214.263671875 14.4697265625 266.979492188 14.4697265625 332.780273438 c 0
 14.4697265625 390.45703125 74.2314453125 435.950195312 150.5 435.950195312 c 0
 205.262695312 435.950195312 228.827148438 423.131835938 259.78125 396.60546875 c 2
 261.138671875 395.44140625 l 1
 261.825195312 393.790039062 l 2
 273.1875 366.473632812 272.171875 317.171875 272.169921875 316.891601562 c 2
 272.102539062 309.549804688 l 1
 264.760742188 309.4609375 l 1
 264.760742188 309.4609375 257.014648438 309.370117188 251.673828125 309.204101562 c 2
 244.493164062 308.979492188 l 1
 243.9609375 316.14453125 l 2
 243.459960938 322.8984375 242.284179688 336.106445312 241.993164062 337.61328125 c 0
 233.229492188 384.111328125 204.754882812 400.969726562 152.229492188 400.969726562 c 0
 106.965820312 400.969726562 70.900390625 384.8046875 70.900390625 335.321289062 c 0
 70.900390625 297.231445312 89.259765625 278.599609375 157.82421875 257.995117188 c 0
EndSplineSet
EndChar

StartChar: t
Encoding: 116 116 65
Width: 335
Flags: MW
HStem: -16.0703 41.8008 400.95 34.9795
VStem: 75.6602 80.0498 126.87 28.8398
LayerCount: 2
Fore
SplineSet
297.30078125 93.2802734375 m 1xe0
 297.30078125 85.7998046875 l 2
 297.30078125 33.8076171875 270.151367188 -16.0703125 200.970703125 -16.0703125 c 0
 154.302734375 -16.0703125 123.1015625 -4.1796875 97.904296875 31.23828125 c 0
 71.5966796875 68.2939453125 75.66015625 115.318359375 75.66015625 182.780273438 c 2xe0
 75.7470703125 400.950195312 l 1
 8 400.950195312 l 1
 0.5 400.950195312 l 1
 0.5 408.450195312 l 1
 0.5 422.290039062 l 1
 0.5 429.790039062 l 1
 8 429.790039062 l 1
 31.0107421875 429.790039062 l 2
 76.2666015625 429.790039062 126.870117188 452.530273438 126.870117188 510.530273438 c 2
 126.870117188 533.450195312 l 1
 126.870117188 540.950195312 l 1
 134.370117188 540.950195312 l 1
 148.209960938 540.950195312 l 1
 155.709960938 540.950195312 l 1
 155.709960938 533.450195312 l 1
 155.709960938 435.9296875 l 1xd0
 248.55078125 435.9296875 l 1
 256.05078125 435.9296875 l 1
 256.05078125 428.4296875 l 1
 256.05078125 408.450195312 l 1
 256.05078125 400.950195312 l 1
 248.55078125 400.950195312 l 1
 155.709960938 400.950195312 l 1
 155.709960938 135.703125 l 2
 155.709960938 58.86328125 174.184570312 25.73046875 199.330078125 25.73046875 c 0
 237.626953125 25.73046875 248.365234375 43.8798828125 254.842773438 71.6435546875 c 0
 255.149414062 72.853515625 256.709960938 79.80078125 258.350585938 87.3701171875 c 2
 259.6328125 93.2802734375 l 1
 265.680664062 93.2802734375 l 1
 290.73828125 93.2802734375 l 1
 297.30078125 93.2802734375 l 1xe0
EndSplineSet
EndChar

StartChar: u
Encoding: 117 117 66
Width: 419
Flags: MW
HStem: -16.0703 39.3604 0 21G<277.811 285.311 277.811 277.811 285.311 349.801 349.801 357.301> 401.04 20G
VStem: 0.5 79.5703 277.82 79.4805
LayerCount: 2
Fore
SplineSet
357.30078125 421.040039062 m 1xb8
 357.30078125 413.540039062 l 1
 357.30078125 7.5 l 1
 357.30078125 0 l 1
 349.80078125 0 l 1
 285.310546875 0 l 1
 277.810546875 0 l 1x78
 277.810546875 7.5 l 1
 277.810546875 49.3525390625 l 1
 247.21875 14.3994140625 213.740234375 -16.0703125 160.130859375 -16.0703125 c 0
 111.384765625 -16.0703125 0.5 29.6953125 0.5 163.045898438 c 2
 0.5 413.540039062 l 1
 0.5 421.040039062 l 1
 8 421.040039062 l 1
 72.5703125 421.040039062 l 1
 80.0703125 421.040039062 l 1
 80.0703125 413.540039062 l 1
 80.0703125 144.828125 l 2
 80.0703125 78.5087890625 114.381835938 23.2900390625 175.890625 23.2900390625 c 0
 223.397460938 23.2900390625 277.8203125 80.1943359375 277.8203125 132.22265625 c 2
 277.8203125 413.540039062 l 1
 277.8203125 421.040039062 l 1
 285.3203125 421.040039062 l 1
 349.80078125 421.040039062 l 1
 357.30078125 421.040039062 l 1xb8
EndSplineSet
EndChar

StartChar: v
Encoding: 118 118 67
Width: 413
Flags: MW
HStem: 401.04 20G
LayerCount: 2
Fore
SplineSet
332.330078125 421.040039062 m 1
 337.9296875 421.040039062 l 1
 358.419921875 421.040039062 l 1
 368.446289062 421.040039062 l 1
 365.614257812 411.745117188 l 1
 236.923828125 -10.6884765625 l 1
 235.33984375 -16.0703125 l 1
 229.729492188 -16.0703125 l 1
 181.26953125 -16.0703125 l 1
 176.142578125 -16.0703125 l 1
 174.28125 -11.29296875 l 1
 4.01171875 411.16015625 l 1
 0.029296875 421.040039062 l 1
 11 421.040039062 l 1
 81.240234375 421.040039062 l 1
 86.314453125 421.040039062 l 1
 88.2021484375 416.330078125 l 1
 227.719726562 68.1884765625 l 1
 330.739257812 415.671875 l 1
 332.330078125 421.040039062 l 1
EndSplineSet
EndChar

StartChar: w
Encoding: 119 119 68
Width: 615
Flags: MW
HStem: 401.04 20G
LayerCount: 2
Fore
SplineSet
569.723632812 421.040039062 m 1
 566.89453125 411.74609375 l 1
 438.294921875 -10.6875 l 1
 436.7109375 -16.0703125 l 1
 431.099609375 -16.0703125 l 1
 382.629882812 -16.0703125 l 1
 377.501953125 -16.0703125 l 1
 375.640625 -11.291015625 l 1
 295.908203125 193.489257812 l 1
 235.834960938 -10.6875 l 1
 234.250976562 -16.0703125 l 1
 228.639648438 -16.0703125 l 1
 180.1796875 -16.0703125 l 1
 175.051757812 -16.0703125 l 1
 173.190429688 -11.291015625 l 1
 3.0107421875 411.162109375 l 1
 -0.96875 421.040039062 l 1
 10 421.040039062 l 1
 80.0693359375 421.040039062 l 1
 85.142578125 421.040039062 l 1
 87.03125 416.331054688 l 1
 226.624023438 68.1142578125 l 1
 306.578125 338.110351562 l 1
 312.705078125 358.80078125 l 1
 320.731445312 338.76953125 l 1
 429.17578125 68.119140625 l 1
 532.108398438 415.669921875 l 1
 533.69921875 421.040039062 l 1
 539.299804688 421.040039062 l 1
 559.69921875 421.040039062 l 1
 569.723632812 421.040039062 l 1
EndSplineSet
EndChar

StartChar: x
Encoding: 120 120 69
Width: 467
Flags: MW
HStem: 0 21G<-0.491211 15 -0.491211 -0.491211 15 38.6699 38.6699 42.2754 334.938 338.78 334.938 334.938 338.78 420.55 420.55 435.254> 401.04 20G
LayerCount: 2
Fore
SplineSet
384.341796875 409.3046875 m 1
 250.508789062 245.979492188 l 1
 426.62109375 11.494140625 l 1
 435.25390625 0 l 1
 420.549804688 0 l 1
 338.780273438 0 l 1
 334.938476562 0 l 1
 332.694335938 3.1171875 l 1
 196.287109375 192.541015625 l 1
 44.5263671875 2.8154296875 l 1
 42.275390625 0 l 1
 38.669921875 0 l 1
 15 0 l 1
 -0.4912109375 0 l 1
 9.1171875 11.7333984375 l 1
 173.732421875 212.767578125 l 1
 30.0400390625 409.625976562 l 1
 21.7080078125 421.040039062 l 1
 36.169921875 421.040039062 l 1
 116.040039062 421.040039062 l 1
 119.880859375 421.040039062 l 1
 122.125 417.923828125 l 1
 229.45703125 268.94140625 l 1
 349.026367188 418.228515625 l 1
 351.27734375 421.040039062 l 1
 354.879882812 421.040039062 l 1
 378.459960938 421.040039062 l 1
 393.958007812 421.040039062 l 1
 384.341796875 409.3046875 l 1
EndSplineSet
EndChar

StartChar: y
Encoding: 121 121 70
Width: 418
Flags: MW
HStem: -200 34.5498<32.7388 55.728 32.5718 64.2476> 401.04 20G
LayerCount: 2
Fore
SplineSet
144.645507812 -151.147460938 m 0
 119.116210938 -186.420898438 79.294921875 -200 49.2001953125 -200 c 0
 16.27734375 -200 -24.6357421875 -189.801757812 -48.78125 -156.984375 c 2
 -53.1572265625 -151.037109375 l 1
 -47.2783203125 -146.568359375 l 1
 -31.6982421875 -134.728515625 l 1
 -26.501953125 -130.780273438 l 1
 -21.873046875 -135.380859375 l 2
 -0.2958984375 -156.82421875 21.0732421875 -165.450195312 44.0703125 -165.450195312 c 0
 67.3857421875 -165.450195312 85.0029296875 -158.345703125 103.711914062 -141.668945312 c 0
 124.529296875 -123.608398438 159.234375 -41.255859375 191.77734375 38.2431640625 c 1
 9.232421875 410.586914062 l 1
 4.107421875 421.040039062 l 1
 16 421.040039062 l 1
 80.740234375 421.040039062 l 1
 85.2900390625 421.040039062 l 1
 87.392578125 417.004882812 l 1
 231.227539062 140.834960938 l 1
 348.215820312 416.4609375 l 1
 350.15625 421.030273438 l 1
 355.120117188 421.030273438 l 1
 374.5703125 421.030273438 l 1
 385.6953125 421.030273438 l 1
 381.522460938 411.025390625 l 2
 368.196289062 379.067382812 344.345703125 321.723632812 338.321289062 306.823242188 c 0
 304.793945312 224.82421875 219.100585938 15.0302734375 185.899414062 -65.849609375 c 0
 176.1640625 -90.3544921875 163.140625 -125.58984375 144.645507812 -151.147460938 c 0
EndSplineSet
EndChar

StartChar: z
Encoding: 122 122 71
Width: 412
Flags: MW
HStem: 0 33.917 386.16 34.8799
LayerCount: 2
Fore
SplineSet
352.25 33.841796875 m 1
 352.25 26.6064453125 l 1
 352.25 7.5 l 1
 352.25 0 l 1
 344.75 0 l 1
 12.7890625 0 l 1
 -0.3193359375 0 l 1
 6.3232421875 10.8779296875 l 1
 235.500976562 386.16015625 l 1
 22 386.16015625 l 1
 14.5 386.16015625 l 1
 14.5 393.66015625 l 1
 14.5 413.540039062 l 1
 14.5 421.040039062 l 1
 22 421.040039062 l 1
 337.169921875 421.040039062 l 1
 350.334960938 421.040039062 l 1
 343.62109375 410.112304688 l 1
 112.53125 33.9169921875 l 1
 344.752929688 33.8447265625 l 1
 352.25 33.841796875 l 1
EndSplineSet
EndChar

StartChar: quotedblleft
Encoding: 8220 8220 72
Width: 336
Flags: MW
HStem: 467.74 123.1
VStem: -0.5 123.1 154.84 123.1
LayerCount: 2
Fore
SplineSet
57.5703125 590.749023438 m 1
 60.7626953125 590.876953125 59.5791015625 590.83984375 61.0498046875 590.83984375 c 0
 95.0244140625 590.83984375 122.588867188 563.263671875 122.599609375 529.290039062 c 0
 122.599609375 495.306640625 95.021484375 467.740234375 61.0498046875 467.740234375 c 0
 27.0673828125 467.740234375 -0.5 493.0078125 -0.5 524.155273438 c 0
 -0.5 542.469726562 0.07421875 553.663085938 6.990234375 572.34765625 c 0
 17.8544921875 601.588867188 49.05078125 615.893554688 81.4169921875 632.55859375 c 2
 88.1142578125 636.321289062 l 1
 91.71484375 629.53515625 l 2
 94.1259765625 626.259765625 98.5380859375 620.341796875 101.379882812 616.546875 c 2
 105.095703125 611.583984375 l 1
 98.0576171875 609.119140625 l 2
 91.7353515625 606.904296875 81.7138671875 603.358398438 80.2109375 602.813476562 c 0
 74.140625 600.525390625 63.78515625 595.1015625 57.5703125 590.749023438 c 1
212.91015625 590.749023438 m 1
 216.102539062 590.876953125 214.918945312 590.83984375 216.389648438 590.83984375 c 0
 250.373046875 590.83984375 277.939453125 563.26171875 277.939453125 529.290039062 c 0
 277.939453125 495.307617188 250.372070312 467.740234375 216.389648438 467.740234375 c 0
 182.407226562 467.740234375 154.83984375 493.0078125 154.83984375 524.155273438 c 0
 154.83984375 542.469726562 155.4140625 553.663085938 162.330078125 572.34765625 c 0
 173.194335938 601.588867188 204.390625 615.893554688 236.756835938 632.55859375 c 2
 243.454101562 636.321289062 l 1
 247.0546875 629.53515625 l 2
 249.465820312 626.259765625 253.877929688 620.341796875 256.719726562 616.547851562 c 2
 260.438476562 611.583984375 l 1
 253.3984375 609.119140625 l 2
 247.075195312 606.904296875 237.053710938 603.358398438 235.55078125 602.813476562 c 0
 229.48046875 600.525390625 219.125 595.1015625 212.91015625 590.749023438 c 1
EndSplineSet
EndChar

StartChar: quotedblright
Encoding: 8221 8221 73
Width: 316
Flags: MW
HStem: 510.42 123.1
VStem: 0.5 123.1 155.84 123.1
LayerCount: 2
Fore
SplineSet
220.869140625 510.510742188 m 1
 217.677734375 510.3828125 218.860351562 510.419921875 217.389648438 510.419921875 c 0
 183.415039062 510.419921875 155.850585938 537.99609375 155.83984375 571.969726562 c 0
 155.83984375 605.953125 183.41796875 633.51953125 217.389648438 633.51953125 c 0
 251.372070312 633.51953125 278.939453125 608.251953125 278.939453125 577.104492188 c 0
 278.939453125 558.790039062 278.365234375 547.59765625 271.44921875 528.912109375 c 0
 260.584960938 499.670898438 229.388671875 485.366210938 197.022460938 468.701171875 c 2
 190.32421875 464.938476562 l 1
 186.724609375 471.725585938 l 2
 184.313476562 475.000976562 179.901367188 480.918945312 177.060546875 484.712890625 c 2
 173.342773438 489.67578125 l 1
 180.381835938 492.140625 l 2
 186.704101562 494.35546875 196.725585938 497.901367188 198.228515625 498.446289062 c 0
 204.298828125 500.734375 214.654296875 506.159179688 220.869140625 510.510742188 c 1
65.529296875 510.510742188 m 1
 62.337890625 510.3828125 63.5205078125 510.419921875 62.0498046875 510.419921875 c 0
 28.06640625 510.419921875 0.5 537.998046875 0.5 571.969726562 c 0
 0.5 605.952148438 28.0673828125 633.51953125 62.0498046875 633.51953125 c 0
 96.0322265625 633.51953125 123.599609375 608.251953125 123.599609375 577.104492188 c 0
 123.599609375 558.790039062 123.025390625 547.59765625 116.109375 528.912109375 c 0
 105.245117188 499.670898438 74.048828125 485.366210938 41.6826171875 468.701171875 c 2
 34.984375 464.938476562 l 1
 31.384765625 471.725585938 l 2
 28.9736328125 475.000976562 24.5615234375 480.918945312 21.7197265625 484.711914062 c 2
 18.0009765625 489.67578125 l 1
 25.041015625 492.140625 l 2
 31.3642578125 494.35546875 41.3857421875 497.901367188 42.888671875 498.446289062 c 0
 48.958984375 500.734375 59.314453125 506.159179688 65.529296875 510.510742188 c 1
EndSplineSet
EndChar

StartChar: emdash
Encoding: 8212 8212 74
Width: 695
Flags: MW
HStem: 168.729 79.5703
LayerCount: 2
Fore
SplineSet
1.240234375 248.298828125 m 1
 8.740234375 248.298828125 l 1
 596 248.298828125 l 1
 603.5 248.298828125 l 1
 603.5 240.798828125 l 1
 603.5 176.228515625 l 1
 603.5 168.728515625 l 1
 596 168.728515625 l 1
 8.740234375 168.728515625 l 1
 1.240234375 168.728515625 l 1
 1.240234375 176.228515625 l 1
 1.240234375 240.798828125 l 1
 1.240234375 248.298828125 l 1
EndSplineSet
EndChar

StartChar: quoteleft
Encoding: 8216 8216 75
Width: 158
Flags: MW
HStem: 467.74 123.1
VStem: 0.5 123.1
LayerCount: 2
Fore
SplineSet
58.5703125 590.749023438 m 1
 61.7626953125 590.876953125 60.5791015625 590.83984375 62.0498046875 590.83984375 c 0
 96.0234375 590.83984375 123.599609375 563.263671875 123.599609375 529.290039062 c 0
 123.599609375 495.307617188 96.0322265625 467.740234375 62.0498046875 467.740234375 c 0
 28.0673828125 467.740234375 0.5 493.0078125 0.5 524.155273438 c 0
 0.5 542.469726562 1.07421875 553.663085938 7.990234375 572.34765625 c 0
 18.8544921875 601.588867188 50.05078125 615.893554688 82.4169921875 632.55859375 c 2
 89.1142578125 636.321289062 l 1
 92.71484375 629.53515625 l 2
 95.1259765625 626.259765625 99.5380859375 620.341796875 102.379882812 616.547851562 c 2
 106.098632812 611.583984375 l 1
 99.05859375 609.119140625 l 2
 92.7353515625 606.904296875 82.7138671875 603.358398438 81.2109375 602.813476562 c 0
 75.140625 600.525390625 64.78515625 595.1015625 58.5703125 590.749023438 c 1
EndSplineSet
EndChar

StartChar: quoteright
Encoding: 8217 8217 76
Width: 151
Flags: MW
HStem: 510.42 123.1
VStem: 0.5 123.1
LayerCount: 2
Fore
SplineSet
65.529296875 510.510742188 m 1
 62.337890625 510.3828125 63.5205078125 510.419921875 62.0498046875 510.419921875 c 0
 28.076171875 510.419921875 0.5 537.99609375 0.5 571.969726562 c 0
 0.5 605.953125 28.078125 633.51953125 62.0498046875 633.51953125 c 0
 96.0322265625 633.51953125 123.599609375 608.251953125 123.599609375 577.104492188 c 0
 123.599609375 558.790039062 123.025390625 547.59765625 116.109375 528.912109375 c 0
 105.245117188 499.670898438 74.048828125 485.366210938 41.6826171875 468.701171875 c 2
 34.984375 464.938476562 l 1
 31.384765625 471.725585938 l 2
 28.9736328125 475.000976562 24.5615234375 480.918945312 21.7197265625 484.711914062 c 2
 18.0009765625 489.67578125 l 1
 25.041015625 492.140625 l 2
 31.3642578125 494.35546875 41.3857421875 497.901367188 42.888671875 498.446289062 c 0
 48.958984375 500.734375 59.314453125 506.159179688 65.529296875 510.510742188 c 1
EndSplineSet
EndChar

StartChar: endash
Encoding: 8211 8211 77
Width: 449
Flags: MW
HStem: 168.729 79.5703
LayerCount: 2
Fore
SplineSet
0.5 248.298828125 m 1
 8 248.298828125 l 1
 349.490234375 248.298828125 l 1
 356.990234375 248.298828125 l 1
 356.990234375 240.798828125 l 1
 356.990234375 176.228515625 l 1
 356.990234375 168.728515625 l 1
 349.490234375 168.728515625 l 1
 8 168.728515625 l 1
 0.5 168.728515625 l 1
 0.5 176.228515625 l 1
 0.5 240.798828125 l 1
 0.5 248.298828125 l 1
EndSplineSet
EndChar

StartChar: f_f
Encoding: 64256 64256 78
Width: 540
LigCaretCntFixed: 1
Flags: MW
HStem: 0 21G<68.4717 75.9697 68.4717 68.4717 75.9697 140.38 140.38 147.88 269.141 276.64 269.141 269.141 276.64 341.05 341.05 348.55> 398.54 34.8701 598.4 35.1191
VStem: 68.4697 79.4102 269.14 79.4102
LayerCount: 2
Fore
SplineSet
302.114257812 603.715820312 m 1
 323.081054688 624.182617188 351.95703125 633.51953125 390.409179688 633.51953125 c 0
 459.807617188 633.51953125 499.76171875 606.959960938 515.561523438 581.640625 c 2
 519.571289062 575.21484375 l 1
 513.107421875 571.268554688 l 1
 479.267578125 550.608398438 l 1
 473.8046875 547.2734375 l 1
 469.651367188 552.14453125 l 2
 437.279296875 590.120117188 421.459960938 598.400390625 393.080078125 598.400390625 c 0
 355.161132812 598.400390625 348.549804688 558.9375 348.549804688 501.669921875 c 2
 348.549804688 433.41015625 l 1
 423.859375 433.41015625 l 1
 431.359375 433.41015625 l 1
 431.359375 425.91015625 l 1
 431.359375 406.040039062 l 1
 431.359375 398.540039062 l 1
 423.859375 398.540039062 l 1
 348.549804688 398.540039062 l 1
 348.549804688 7.5 l 1
 348.549804688 0 l 1
 341.049804688 0 l 1
 276.639648438 0 l 1
 269.140625 0 l 1
 269.139648438 7.4990234375 l 1
 269.060546875 398.540039062 l 1
 223.19921875 398.540039062 l 1
 207.669921875 398.540039062 l 1
 147.879882812 398.540039062 l 1
 147.879882812 7.5 l 1
 147.879882812 0 l 1
 140.379882812 0 l 1
 75.9697265625 0 l 1
 68.4716796875 0 l 1
 68.4697265625 7.498046875 l 1
 68.3818359375 398.540039062 l 1
 7 398.540039062 l 1
 -0.5 398.540039062 l 1
 -0.5 406.040039062 l 1
 -0.5 425.91015625 l 1
 -0.5 433.41015625 l 1
 7 433.41015625 l 1
 68.3896484375 433.41015625 l 1
 68.3896484375 501.669921875 l 2
 68.3896484375 585.311523438 105.299804688 633.51953125 189.75 633.51953125 c 0
 240.393554688 633.51953125 278.036132812 619.74609375 302.114257812 603.715820312 c 1
269.049804688 433.41015625 m 1
 269.049804688 501.669921875 l 2
 269.049804688 521.70703125 271.235351562 539.69921875 275.416015625 555.432617188 c 1
 241.211914062 586.254882812 218.918945312 598.400390625 192.399414062 598.400390625 c 0
 154.481445312 598.400390625 147.869140625 558.9375 147.869140625 501.669921875 c 2
 147.869140625 433.41015625 l 1
 207.659179688 433.41015625 l 1
 223.189453125 433.41015625 l 1
 269.049804688 433.41015625 l 1
EndSplineSet
Ligature2: "<1,2> Common Ligatures in Latin lookup 0 subtable" f f
LCarets2: 1 223
EndChar

StartChar: f_i
Encoding: 64257 64257 79
Width: 418
Flags: MW
HStem: 0 21G<61.4727 68.9707 61.4727 61.4727 68.9707 133.381 133.381 140.881 261.871 269.371 261.871 261.871 269.371 333.78 333.78 341.27> 398 35.4199 598.41 35.1201
VStem: 61.4697 79.4102 261.87 79.3994
LayerCount: 2
Fore
SplineSet
341.26953125 0 m 1
 333.780273438 0 l 1
 269.37109375 0 l 1
 261.87109375 0 l 1
 261.87109375 7.5 l 1
 261.87109375 398 l 1
 140.880859375 398 l 1
 140.880859375 7.5 l 1
 140.880859375 0 l 1
 133.380859375 0 l 1
 68.970703125 0 l 1
 61.47265625 -0 l 1
 61.470703125 7.498046875 l 1
 61.3828125 398 l 1
 0.0009765625 398 l 1
 -7.4990234375 398 l 1
 -7.4990234375 401.403320312 l 1
 -7.4990234375 425.919921875 l 1
 -7.4990234375 433.419921875 l 1
 0.0009765625 433.419921875 l 1
 61.380859375 433.419921875 l 1
 61.380859375 501.6796875 l 2
 61.380859375 585.986328125 106.0859375 633.530273438 190.110351562 633.530273438 c 0
 259.385742188 633.530273438 303.450195312 607.276367188 319.443359375 581.650390625 c 2
 323.453125 575.224609375 l 1
 316.98828125 571.278320312 l 1
 283.147460938 550.618164062 l 1
 277.68359375 547.282226562 l 1
 273.53125 552.155273438 l 2
 241.465820312 589.782226562 221.352539062 598.41015625 192.779296875 598.41015625 c 0
 154.2578125 598.41015625 140.870117188 557.74609375 140.870117188 501.6796875 c 2
 140.870117188 433.419921875 l 1
 333.76953125 433.419921875 l 1
 341.26953125 433.419921875 l 1
 341.26953125 425.919921875 l 1
 341.26953125 6.5625 l 1
 341.26953125 0 l 1
EndSplineSet
EndChar

StartChar: fl
Encoding: 64258 64258 80
Width: 415
Flags: MW
HStem: 0 21G 398 35.4102 598.4 35.1299
VStem: 61.4697 79.4395 261.859 79.3203
LayerCount: 2
Fore
SplineSet
191.19921875 598.400390625 m 0
 164.952148438 598.400390625 140.911132812 580.370117188 140.911132812 501.670898438 c 2
 140.911132812 433.411132812 l 1
 216.19140625 433.411132812 l 1
 223.721679688 433.411132812 l 1
 223.721679688 425.911132812 l 1
 223.721679688 401.403320312 l 1
 223.721679688 398.000976562 l 1
 216.19140625 398.000976562 l 1
 140.911132812 398.000976562 l 1
 140.911132812 7.5009765625 l 1
 140.911132812 0.0009765625 l 1
 133.381835938 0.0009765625 l 1
 69.001953125 0.0009765625 l 1
 61.4736328125 0.0009765625 l 1
 61.4716796875 7.4990234375 l 1
 61.3837890625 398.000976562 l 1
 0.001953125 398.000976562 l 1
 -7.498046875 398.000976562 l 1
 -7.498046875 401.404296875 l 1
 -7.498046875 425.920898438 l 1
 -7.498046875 433.420898438 l 1
 0.03125 433.420898438 l 1
 61.3818359375 433.420898438 l 1
 61.3818359375 501.680664062 l 2
 61.3818359375 553.010742188 77.060546875 591.674804688 110.184570312 613.483398438 c 0
 130.561523438 626.909179688 156.794921875 633.530273438 188.541015625 633.530273438 c 0
 249.422851562 633.530273438 298.892578125 618.005859375 339.244140625 573.359375 c 2
 341.1796875 571.217773438 l 1
 341.1796875 568.331054688 l 1
 341.1796875 7.5009765625 l 1
 341.1796875 0.0009765625 l 1
 333.6796875 0.0009765625 l 1
 269.359375 0.0009765625 l 1
 261.859375 0.0009765625 l 1
 261.859375 7.5009765625 l 1
 261.859375 565.12890625 l 1
 236.333984375 595.83203125 213.110351562 598.400390625 191.19921875 598.400390625 c 0
EndSplineSet
EndChar

StartChar: f_f_i
Encoding: 64259 64259 81
Width: 625
Flags: MW
HStem: 0 21G 398 35.4102 598.4 35.1191
VStem: 61.4902 79.4102 265.991 79.4893 466.47 79.4102
LayerCount: 2
Fore
SplineSet
545.879882812 433.41015625 m 1
 545.880859375 425.911132812 l 1
 545.880859375 7.5009765625 l 1
 545.880859375 0.0009765625 l 1
 538.380859375 0.0009765625 l 1
 473.970703125 0.0009765625 l 1
 466.470703125 0.0009765625 l 1
 466.470703125 7.5009765625 l 1
 466.470703125 398.000976562 l 1
 345.481445312 398.000976562 l 1
 345.481445312 7.5009765625 l 1
 345.481445312 0.0009765625 l 1
 337.981445312 0.0009765625 l 1
 273.571289062 0.0009765625 l 1
 266.072265625 0.0009765625 l 1
 266.071289062 7.5 l 1
 265.9921875 398.000976562 l 1
 140.901367188 398.000976562 l 1
 140.901367188 7.5009765625 l 1
 140.901367188 0.0009765625 l 1
 133.401367188 0.0009765625 l 1
 68.9912109375 0.0009765625 l 1
 61.4931640625 0.0009765625 l 1
 61.4912109375 7.4990234375 l 1
 61.3828125 413.500976562 l 1
 0.0009765625 398.000976562 l 1
 -7.4990234375 398.000976562 l 1
 -7.4990234375 401.401367188 l 1
 -7.4990234375 425.911132812 l 1
 -7.4990234375 433.411132812 l 1
 0.0009765625 433.411132812 l 1
 61.380859375 433.411132812 l 1
 61.380859375 501.670898438 l 2
 61.380859375 585.3125 98.291015625 633.520507812 182.741210938 633.520507812 c 0
 233.206054688 633.520507812 274.411132812 618.969726562 300.927734375 601.508789062 c 1
 323.05078125 622.951171875 354.665039062 633.520507812 394.709960938 633.520507812 c 0
 463.984375 633.520507812 508.05078125 607.278320312 524.043945312 581.639648438 c 2
 528.051757812 575.21484375 l 1
 521.588867188 571.268554688 l 1
 487.748046875 550.608398438 l 1
 482.284179688 547.272460938 l 1
 478.131835938 552.145507812 l 2
 446.06640625 589.772460938 425.953125 598.400390625 397.379882812 598.400390625 c 0
 358.859375 598.400390625 345.48046875 557.73828125 345.48046875 501.669921875 c 2
 345.48046875 433.41015625 l 1
 538.379882812 433.41015625 l 1
 545.879882812 433.41015625 l 1
140.901367188 501.670898438 m 2
 140.901367188 433.41015625 l 1
 265.991210938 433.41015625 l 1
 265.991210938 501.669921875 l 2
 265.991210938 521.064453125 268.563476562 539.139648438 272.975585938 554.0546875 c 1
 236.880859375 587.001953125 211.227539062 598.401367188 185.431640625 598.401367188 c 0
 147.512695312 598.401367188 140.901367188 558.938476562 140.901367188 501.670898438 c 2
EndSplineSet
EndChar

StartChar: f_f_l
Encoding: 64260 64260 82
Width: 1000
Flags: MW
HStem: 0 21G<292.312 299.81 292.312 292.312 299.81 364.22 364.22 371.72 496.892 504.48 496.892 496.892 504.48 568.8 568.8 576.39 697.35 704.85 697.35 697.35 704.85 769.17 769.17 776.67> 398 35.4102 598.4 35.1191
VStem: 292.31 79.4102 496.89 79.5 697.35 79.3203
LayerCount: 2
Fore
SplineSet
413.5703125 633.51953125 m 0
 463.794921875 633.51953125 503.737304688 619.668945312 531.419921875 601.697265625 c 1
 558.134765625 627.3515625 588.442382812 633.520507812 628.451171875 633.520507812 c 0
 668.846679688 633.520507812 728.98828125 625.77734375 774.821289062 573.251953125 c 2
 776.669921875 571.1328125 l 1
 776.669921875 568.3203125 l 1
 776.669921875 7.5 l 1
 776.669921875 0 l 1
 769.169921875 0 l 1
 704.849609375 0 l 1
 697.349609375 0 l 1
 697.349609375 7.5 l 1
 697.349609375 398 l 1
 576.389648438 398 l 1
 576.389648438 7.5 l 1
 576.389648438 0 l 1
 568.799804688 0 l 1
 504.48046875 0 l 1
 496.891601562 -0 l 1
 496.889648438 7.498046875 l 1
 496.801757812 398 l 1
 371.719726562 398 l 1
 371.719726562 7.5 l 1
 371.719726562 0 l 1
 364.219726562 0 l 1
 299.809570312 0 l 1
 292.311523438 -0 l 1
 292.309570312 7.498046875 l 1
 292.211914062 398 l 1
 230.830078125 398 l 1
 223.330078125 398 l 1
 223.330078125 401.40234375 l 1
 223.330078125 425.91015625 l 1
 223.330078125 433.41015625 l 1
 230.830078125 433.41015625 l 1
 292.209960938 433.41015625 l 1
 292.209960938 501.669921875 l 2
 292.209960938 585.311523438 329.120117188 633.51953125 413.5703125 633.51953125 c 0
371.720703125 433.411132812 m 1
 496.794921875 433.411132812 l 1
 496.697265625 496.490234375 495.509765625 528.556640625 503.670898438 554.221679688 c 1
 467.861328125 586.856445312 441.981445312 598.401367188 416.250976562 598.401367188 c 0
 378.333007812 598.401367188 371.720703125 558.938476562 371.720703125 501.670898438 c 2
 371.720703125 433.411132812 l 1
697.340820312 565.12890625 m 1
 671.4921875 596.221679688 649.6796875 598.380859375 627.951171875 598.380859375 c 0
 594.029296875 598.380859375 576.380859375 566.583007812 576.380859375 501.670898438 c 2
 576.380859375 433.411132812 l 1
 697.340820312 433.411132812 l 1
 697.340820312 565.12890625 l 1
EndSplineSet
EndChar

StartChar: parenleft
Encoding: 40 40 83
Width: 240
VWidth: 0
Flags: W
VStem: 0.429688 61.5<168.714 529.212>
LayerCount: 2
Fore
SplineSet
82.681640625 144.793945312 m 0
 95.2353515625 83.6787109375 112.70703125 34.318359375 134 -8 c 2
 140.188476562 -19.5234375 l 1
 127.700195312 -22.2197265625 l 1
 100.05078125 -28.1904296875 l 1
 92.451171875 -29.83203125 l 1
 88.9853515625 -28.1865234375 l 2
 88.2373046875 -26.701171875 0.4296875 147.548828125 0.4296875 347.110351562 c 0
 0.4296875 547.60546875 87.15625 720.690429688 88.353515625 723.095703125 c 2
 91.3359375 723.772460938 l 1
 98.8974609375 722.23046875 l 1
 127.596679688 716.379882812 l 1
 140.077148438 713.8359375 l 1
 133 699 l 2
 100.068359375 629.995117188 61.9296875 478.404296875 61.9296875 343.120117188 c 0
 61.9296875 273.10546875 69.7884460737 207.561887857 82.681640625 144.793945312 c 0
EndSplineSet
EndChar

StartChar: parenright
Encoding: 41 41 84
Width: 243
VWidth: 0
Flags: W
VStem: 80.6738 62.5557<168.173 529.065>
LayerCount: 2
Fore
SplineSet
143.229492188 347.110351562 m 0
 143.229492188 146.604492188 55.4462890625 -26.65234375 54.234375 -29.060546875 c 2
 51.205078125 -29.8271484375 l 1
 43.607421875 -28.1904296875 l 1
 15.8974609375 -22.2197265625 l 1
 3.3896484375 -19.5244140625 l 1
 9.0263671875 -13.408203125 l 2
 51.7900390625 72.6796875 80.673828125 208.673828125 80.673828125 347.110351562 c 0
 80.673828125 414.850585938 71.099609375 487.9375 57.298828125 552.681640625 c 0
 43.5048828125 617.188476562 25.349609375 673.571289062 8.958984375 707.850585938 c 2
 3.525390625 713.83984375 l 1
 16.0107421875 716.379882812 l 1
 44.771484375 722.23046875 l 1
 52.33203125 723.768554688 l 1
 55.7392578125 722.2265625 l 2
 56.4794921875 720.740234375 143.229492188 546.600585938 143.229492188 347.110351562 c 0
EndSplineSet
EndChar

StartChar: ampersand
Encoding: 38 38 85
Width: 571
VWidth: 0
Flags: W
HStem: -11.4541 66.168<94.4756 322.03> 304.58 54.9199<98.1035 288.915 374.201 461.577>
VStem: 288.915 63.6617<84.5428 304.52> 456.958 47.6846<38.0595 109.409>
LayerCount: 2
Fore
SplineSet
2.7802734375 390.321289062 m 0
 -6.2177734375 479.999023438 14 542 58 597 c 0
 72.7322329386 615.415291173 102.604852393 636.836468459 129.109971417 648.380859375 c 0
 223.855219916 689.647460938 342.686309969 675.688476562 387.994140625 591.880859375 c 0
 414.381835938 539.323242188 411.3984375 460.387695312 374.200811069 359.5 c 1
 451.577148438 359.5 l 1
 461.577148438 359.5 l 1
 461.577148438 349.5 l 1
 461.577148438 314.51953125 l 1
 461.577148438 304.51953125 l 1
 451.577148438 304.51953125 l 1
 352.57710593 304.51953125 l 1
 337.269821108 245.630859375 344.350971912 147.120117188 370.455321697 91.58984375 c 0
 377.067494136 77.5205078125 384.004993909 66.2412109375 390.5234375 57.6259765625 c 0
 410.09375 31.2958984375 427.024414062 29.83203125 443.297851562 41.212890625 c 0
 456.109375 50.171875 459.83203125 79.6015625 457.98046875 98.810546875 c 2
 456.958007812 109.409179688 l 1
 467.936523438 109.409179688 l 1
 495.197265625 109.409179688 l 1
 504.642578125 109.409179688 l 1
 505.180664062 100.265625 l 2
 508.217773438 48.7431640625 492.104492188 -9.6708984375 432.95703125 -15.33203125 c 0
 407.955078125 -15.9541015625 387.44921875 -14.189453125 367.581244827 -11.4541015625 c 1
 12.7265625 -11.4541015625 l 1
 0.869140625 -11.4541015625 l 1
 2.8701171875 -8.5 l 1
 2.8701171875 -8.5 27.854730218 140.420337667 2.7802734375 390.321289062 c 0
98.103515625 304.580078125 m 1
 106.977539062 187.137695312 97.927734375 86.833984375 94.4755859375 54.7138671875 c 1
 147.004031048 54.74609375 217.814482827 54.9560546875 322.030136771 54.978515625 c 1
 289.566060108 123.732421875 272.364905448 201.081054688 288.91540544 304.580078125 c 1
 98.103515625 304.580078125 l 1
303.936444458 359.5 m 1
 313.070959994 385.049804688 340.537882055 470.268554688 331.453010626 535.70703125 c 0
 327.569151511 563.685546875 318.338516536 583.66796875 306.409143449 597.370117188 c 0
 271.664606674 637.27734375 206.350919332 629.723632812 158.46442577 593.600585938 c 0
 105.856445312 553.03125 78.0546875 463.271484375 91.91015625 359.5 c 1
 303.936444458 359.5 l 1
EndSplineSet
EndChar

StartChar: less
Encoding: 60 60 86
Width: 335
VWidth: 0
Flags: W
VStem: -0.389648 252.587
LayerCount: 2
Fore
SplineSet
207.509765625 9.0703125 m 1
 156.280273438 9.0703125 l 1
 171.208984375 9.0703125 l 1
 168.212890625 9.0703125 l 1
 4.203125 227.071289062 l 1
 -0.3896484375 233.341796875 l 1
 4.552734375 239.33984375 l 1
 185.47265625 452.540039062 l 1
 188.47265625 452.540039062 l 1
 213.190429688 452.540039062 l 1
 211.049804688 452.540039062 l 1
 252.197265625 452.540039062 l 1
 238 436 l 5
 68.634765625 238.943359375 l 1
 235.52734375 21.0234375 l 1
 247.436523438 9.0703125 l 1
 207.509765625 9.0703125 l 1
EndSplineSet
EndChar

StartChar: greater
Encoding: 62 62 87
Width: 335
VWidth: 0
Flags: W
VStem: -3.38965 252.588
LayerCount: 2
Fore
SplineSet
41.298828125 452.540039062 m 1
 52.5283203125 452.540039062 l 1
 77.5986328125 452.540039062 l 1
 80.595703125 452.540039062 l 1
 244.60546875 234.5390625 l 1
 249.198242188 228.268554688 l 1
 244.255859375 222.270507812 l 1
 63.3359375 9.0703125 l 1
 60.3359375 9.0703125 l 1
 75.6181640625 9.0703125 l 1
 -2.2412109375 9.0703125 l 1
 -3.3896484375 9.0703125 l 1
 10.029296875 21.7607421875 l 1
 180.173828125 222.658203125 l 1
 14 438 l 5
 1.373046875 452.540039062 l 1
 41.298828125 452.540039062 l 1
EndSplineSet
EndChar

StartChar: at
Encoding: 64 64 88
Width: 782
VWidth: 0
Flags: W
HStem: -21.9805 20G<519.84 534.843>
VStem: 530.401 0.663086<-51.8701 -49.6296> 531.064 3.20312<-51.4991 -49.3867> 654.366 55.0225<197.593 425.074>
LayerCount: 2
Fore
SplineSet
534.267578125 -27.3701171875 m 2xb0
 533.044921875 -35.349609375 532.194335938 -43.966796875 531.064453125 -51.8701171875 c 2
 530.401367188 -49.38671875 l 1xd0
 526.275390625 -51.8701171875 l 2
 483.209960938 -76.751953125 375.259765625 -90.38671875 319.010742188 -88.5595703125 c 0
 118.668945312 -81.9814453125 -7.03515625 38.6025390625 0.615234375 234.498046875 c 0
 8.22265625 430.586914062 151.021484375 597.328125 370.84765625 617 c 0
 387.522460938 618.48828125 403.877929688 618.90234375 419.844726562 618.291992188 c 0
 595.908203125 611.569335938 717.060546875 480.150390625 709.388671875 300.67578125 c 0
 700.897460938 103.028320312 579.701171875 53.0048828125 533.8125 41.5595703125 c 0
 470.920898438 25.9716796875 423.220703125 59.2294921875 413.760742188 103.612304688 c 1
 388.171875 79.478515625 337.720703125 40.6015625 273.76953125 44.8798828125 c 0
 251.9453125 46.2626953125 232.779296875 53.51171875 217.017578125 64.919921875 c 0
 134.895507812 129.854492188 137.938476562 315.638671875 229.783203125 416.876953125 c 0
 304.291015625 500.791015625 446.629882812 490.581054688 526.016601562 455.36328125 c 2
 533.212890625 452.170898438 l 1
 531.93359375 444.677734375 l 1
 531.93359375 444.677734375 491.01171875 204.928710938 485.876953125 118.719726562 c 0
 484.85546875 106.598632812 489.833984375 101.6796875 495.154296875 99.5185546875 c 0
 516.383789062 88.65234375 586.658203125 118.69140625 619.901367188 168.220703125 c 0
 646.114257812 212.313476562 652.315429688 256.336914062 654.366210938 307.2734375 c 0
 654.9453125 321.64453125 654.5625 335.581054688 653.28515625 349.041992188 c 0
 639.703125 485.674804688 522.294921875 572.930664062 371.359375 559.631835938 c 0
 205.344726562 544.828125 78.66796875 440.466796875 61.5439453125 237.295898438 c 0
 47.9033203125 76.2607421875 153.39453125 -28.494140625 319.668945312 -37.3935546875 c 0
 390.190429688 -41.19921875 477.672851562 -25.646484375 519.83984375 -8.953125 c 2
 536.98046875 -1.98046875 l 1
 534.267578125 -27.3701171875 l 2xb0
314.963867188 113.853515625 m 0
 417.608398438 131.25390625 443.758789062 324.728515625 448.5703125 419.497070312 c 1
 423.478515625 427.91015625 344.112304688 447.65625 284.461914062 385.192382812 c 0
 233.44921875 331.776367188 214.336914062 246.12109375 226.305664062 182.87109375 c 0
 236.579101562 135.3515625 266.846679688 106.487304688 314.963867188 113.853515625 c 0
EndSplineSet
EndChar

StartChar: copyright
Encoding: 169 169 90
Width: 730
VWidth: 0
Flags: W
HStem: -0.669922 46.9297<216.689 430.069> 487.467 35.7432<278.33 407.518> 578.52 50.0303<216.689 430.069>
VStem: -0.610352 51.4199<207.235 415.46> 136.633 62.7041<231.558 406.228> 598.56 50.0508<210.916 415.414>
LayerCount: 2
Fore
SplineSet
-0.6103515625 313.940429688 m 0
 -0.6103515625 487.69140625 141.319850007 628.549804688 324 628.549804688 c 0
 506.680149993 628.549804688 648.610351562 487.69140625 648.610351562 313.940429688 c 0
 648.610351562 140.188476562 506.680149993 -0.669921875 324 -0.669921875 c 0
 141.319850007 -0.669921875 -0.6103515625 140.188476562 -0.6103515625 313.940429688 c 0
50.8095703125 312.389648438 m 0
 50.8095703125 165.1796875 167.992577025 46.259765625 322.360291591 46.259765625 c 0
 476.891258278 46.259765625 598.559570312 165.401367188 598.559570312 312.389648438 c 0
 598.559570312 459.37890625 476.891258278 578.51953125 322.360291591 578.51953125 c 0
 167.992577025 578.51953125 50.8095703125 459.600585938 50.8095703125 312.389648438 c 0
438.756835938 194.370117188 m 0
 442.86328125 201.299804688 448.216796875 216.541992188 449.418945312 221.552734375 c 0
 451.078125 228.520507812 457.547851562 234.700195312 466.346679688 234.700195312 c 2
 476.892578125 234.700195312 l 1
 488.565429688 234.700195312 l 1
 487.348632812 223.658203125 l 2
 483.665039062 190.224609375 467.681640625 160.799804688 438.537109375 138.314453125 c 0
 358.58203125 76.6162109375 248.85546875 108.6875 200.123046875 156.823242188 c 0
 160.923828125 195.53125 136.6328125 251.670898438 136.6328125 315.780273438 c 0
 136.6328125 379.756835938 159.646484375 434.453125 199.720703125 472.166992188 c 0
 253.626953125 522.921875 306.987304688 523.209960938 346.793945312 523.209960938 c 0
 406.096679688 523.209960938 471.747070312 485.029296875 482.524414062 406.43359375 c 2
 483.877929688 396.560546875 l 1
 473.502929688 395.23046875 l 1
 473.502929688 395.23046875 470.408203125 394.834960938 469.745117188 394.731445312 c 2
 469.489257812 394.69140625 l 1
 469.232421875 394.6640625 l 2
 461.044921875 393.782226562 454.193359375 400.466796875 452.508789062 404.95703125 c 0
 451.741210938 408.171875 451.071289062 411.693359375 448.688476562 416.58203125 c 0
 439.879882812 434.798828125 427.155273438 464.950195312 393.017578125 477.172851562 c 0
 373.0234375 484.336914062 354.892578125 487.447265625 338.4921875 487.466796875 c 0
 247.423828125 487.580078125 199.336914062 388.698242188 199.336914062 318 c 0
 199.336914062 241.083007812 247.03125 181.194335938 287.682617188 158.551757812 c 0
 326.828125 136.6640625 409.923828125 145.971679688 438.756835938 194.370117188 c 0
EndSplineSet
EndChar
